<svg xmlns="http://www.w3.org/2000/svg" viewBox="0 0 86 85.16"><g data-name="レイヤー 2"><path d="M86 42.58c0 2-4.12 3.65-4.39 5.56s3.2 4.7 2.66 6.56-5 2.32-5.79 4.09 1.75 5.41.7 7-5.43.82-6.71 2.29.16 5.68-1.31 7-5.43-.74-7.08.32-1.43 5.49-3.21 6.3S55.88 79.46 54 80s-2.92 4.86-4.87 5.14S45 81.58 43 81.58s-4.21 3.84-6.12 3.57S33.86 80.56 32 80s-5.12 2.5-6.88 1.69-1.58-5.25-3.22-6.3-5.6.95-7.07-.32 0-5.49-1.32-7-5.64-.64-6.7-2.29 1.51-5.26.69-7-5.22-2.19-5.77-4.08 2.94-4.61 2.66-6.56S0 44.56 0 42.58 4.12 38.93 4.39 37s-3.2-4.71-2.66-6.57 5-2.32 5.79-4.08-1.75-5.42-.7-7 5.43-.82 6.71-2.29-.16-5.68 1.31-7 5.43.75 7.08-.31 1.43-5.5 3.21-6.31 5 2.24 6.88 1.69S34.93.29 36.88 0 41 3.58 43 3.58 47.21-.26 49.12 0s3 4.6 4.87 5.14 5.12-2.5 6.88-1.69 1.58 5.25 3.22 6.31 5.6-1 7.07.31 0 5.49 1.32 7 5.64.65 6.7 2.29-1.51 5.26-.69 7.05 5.23 2.2 5.78 4.08-2.94 4.58-2.66 6.51S86 40.6 86 42.58z" fill="#5b3c94" data-name="レイヤー 1"/></g></svg>