<svg xmlns="http://www.w3.org/2000/svg" viewBox="0 0 875.44 875.44"><g opacity=".15" data-name="レイヤー 2"><path d="M181.73 519.43c-16.22 7.07-40.66-8-46.41-37.6a1.37 1.37 0 0 0-.56-.86 1 1 0 0 0-.91-.09l-6.28 2.76A1.21 1.21 0 0 0 127 485l14 66a1.32 1.32 0 0 0 .61.88 1 1 0 0 0 .64.11.82.82 0 0 0 .3-.1l4-2.29a1.25 1.25 0 0 0 .52-1.35L144 533.77c-.36-2-.85-4.14-1.39-6.11a10.82 10.82 0 0 0 2 1.76c7.64 5.22 20.72 7.5 31.81 5.54a34.62 34.62 0 0 0 8.14-2.43c27.69-12.48 43.51-41.2 38.46-69.84s-27.64-39.86-49.51-50.79c-20.09-10-39.07-19.53-43-41.55-2.7-15.34 4.94-26.75 20-29.78l.62-.12c18.54-3.27 33.18 14.31 37.54 32.49l1.23 5.51a1.31 1.31 0 0 0 .53.81 1 1 0 0 0 .85.13l6.14-2A1.2 1.2 0 0 0 198 376l-11.46-54.62a1.14 1.14 0 0 0-1.25-1l-4.53.86a1 1 0 0 0-.68.5 1.37 1.37 0 0 0-.13.94l1.85 9.07c.34 1.89.8 3.85 1.26 5.66a15.47 15.47 0 0 0-2.83-2.89c-8.17-6.46-20.32-9.23-31.73-7.22l-.46.09c-23.64 4.45-37.23 27.92-32.31 55.81 6.12 34.73 31.4 47.24 53.71 58.28 17.73 8.78 33 16.35 36 33.05 3.56 20.08-5.31 36.88-23.71 44.9zM170.5 427.8c-19.5-9.8-39.71-19.9-45.31-43.7 8.62 21.95 28.43 31.8 47.67 41.36 19.51 9.69 37.93 18.85 41.66 40a43.12 43.12 0 0 1 .33 12.73c-.23-2-.56-4.19-1-6.62-.37-1.66-.62-2.92-.83-3.94a23.38 23.38 0 0 0-1.72-5.92c-7.07-17.01-23.46-25.22-40.8-33.91zm57.29-80.26L243 433.62c3 17.2 9 30.94 17.2 39.74s18.42 12.42 29.49 10.47a41.33 41.33 0 0 0 9.74-3.07c25-11.25 37.56-42.54 31.33-77.87l-13.42-76.1c-2.69-15.26-2.19-16.3 8.92-18.59l4.77-1a1.17 1.17 0 0 0 .81-1.4l-1-5.85a1.39 1.39 0 0 0-.47-.81.91.91 0 0 0-.81-.22l-44 8.66a1.16 1.16 0 0 0-.82 1.4l1.1 6.24a1.36 1.36 0 0 0 .47.82.93.93 0 0 0 .82.21l6.53-1.34c10.94-2.25 12.37-1.74 15.1 13.75l13.55 76.85c5.23 29.7-4.72 54.7-25.35 63.69a26.18 26.18 0 0 1-6 1.85c-16.85 3-24-17-27.07-34.29l-16.52-93.66c-3-17-1.78-18.28 9.11-20.52l6.52-1.35a1.17 1.17 0 0 0 .81-1.4l-1.14-6.46a1.33 1.33 0 0 0-.46-.82.9.9 0 0 0-.81-.21l-55 10.83a1.17 1.17 0 0 0-.81 1.41l1.22 6.94a1.36 1.36 0 0 0 .47.82.91.91 0 0 0 .82.22l4.51-.93c.76-.16 1.48-.3 2.15-.42 8.92-1.58 10.14-.05 13.03 16.33zm9.44-17.54a109.8 109.8 0 0 0 1.56 15l16.66 94.5a122.69 122.69 0 0 0 3.23 14 81.59 81.59 0 0 1-7-22.58l-15.05-85.32a123.66 123.66 0 0 0-3.69-14.68zm182.84 90l-.88-5a1.33 1.33 0 0 0-.55-.88 1 1 0 0 0-.92-.1l-6.28 2.71a33.07 33.07 0 0 1-6.92 2.42c-3.92.69-5.27-.72-7.24-11.92L392.83 382l24.82-8.8c31.27-11.07 49.42-34.68 45.18-58.73s-28.86-36.27-61-29.79L338 297.25a1.16 1.16 0 0 0-.81 1.4l1 5.77a1.29 1.29 0 0 0 .47.82 1.09 1.09 0 0 0 .81.21l6.78-1.39c.87-.18 1.68-.34 2.44-.47 8.7-1.54 9.83-.33 12.17 12.92l17.26 97.92c2.5 14.18 1.75 15.91-9 20.56l-6.52 2.81a1.22 1.22 0 0 0-.63 1.35l1 5.46a1.36 1.36 0 0 0 .56.88 1 1 0 0 0 .71.15.83.83 0 0 0 .21-.06l55-24.26a1.22 1.22 0 0 0 .62-1.32zm34.22-103.37a30 30 0 0 1-3.18 19.27 53.23 53.23 0 0 0-.19-18.14 48.19 48.19 0 0 0-6.25-17.09 25.11 25.11 0 0 1 9.62 15.94zM388 423.87a96.17 96.17 0 0 0-1.43-12.34l-17.08-96.91c-.29-1.62-.78-4.41-1.53-7.34a22.46 22.46 0 0 1 4.41 9.41l16.48 93.45a79.42 79.42 0 0 0 3.21 12zm14.7-128.74c22.44-4.71 35.68 3.67 39.41 24.82s-5.82 36-27.55 43.42l-23.62 8-10-56.62c-1.08-6.18-3-10.73-5.86-13.83zm181.7 52.7l.77 7.58a1.38 1.38 0 0 0 .52.95 1 1 0 0 0 .95.14l4.12-1.7a1.18 1.18 0 0 0 .66-1.23l-3.26-36.2a1.43 1.43 0 0 0-.5-.95 1 1 0 0 0-.94-.17l-4.4 1.63a1.18 1.18 0 0 0-.69 1.25c1.83 18.64-4.16 23.95-27.24 33.79l-36.65 15.63a21.54 21.54 0 0 0 2-12.87l-5.71-32.35 11.9-3.82a36.55 36.55 0 0 1 4.65-1.24c6.14-1.08 7.73 1.62 10.62 18a1.41 1.41 0 0 0 .53.87 1 1 0 0 0 .9.13l4.39-1.65a1.19 1.19 0 0 0 .67-1.36l-8.63-49a1.39 1.39 0 0 0-.49-.84.88.88 0 0 0-.85-.18l-4.47 1.15a1.17 1.17 0 0 0-.77 1.39c3.41 19.3 2.13 21-8.28 24.23l-11.69 3.59-5.28-29.93a17.2 17.2 0 0 0-6.11-10.36l27.18-5.73c2.54-.53 4.89-1 7.08-1.39 18.75-3.3 24.32-.23 28.39 15.64.17.66.66 1.13 1.32.91l4.47-1.18a1.06 1.06 0 0 0 .65-.56 1.35 1.35 0 0 0 .08-.95L561 245.84a1.12 1.12 0 0 0-1.28-.91l-4.25 1a1.07 1.07 0 0 0-.67.55 1.35 1.35 0 0 0-.09 1l1.95 7.69a9.52 9.52 0 0 0-4.58 0l-86.85 17.09a1.17 1.17 0 0 0-.82 1.4l.82 4.64a1.39 1.39 0 0 0 .47.82 1 1 0 0 0 .82.21l6.77-1.39c11.16-2.29 12.11-1.76 14 9.15l13.75 78c1.9 10.76 1.49 12.41-9.62 17.2l-6.52 2.82a1.2 1.2 0 0 0-.63 1.34l.77 4.38a1.3 1.3 0 0 0 .56.88 1 1 0 0 0 .7.16l.22-.07 93.12-41.06a14.34 14.34 0 0 0 4.76-2.91zm-73 10.73a12.24 12.24 0 0 1-1.26 7.44c-.2-1.41-.43-2.72-.63-3.87l-13.57-77c-.17-1-.43-2.43-.79-4.09a8.47 8.47 0 0 1 3.58 5.59zm197.99-113.1c-2.11-12-24.19-15.82-57.61-9.93-1.44.25-2.9.53-4.37.82L588.1 248a1.18 1.18 0 0 0-.82 1.41l.63 3.53a1.29 1.29 0 0 0 .47.82.94.94 0 0 0 .81.21l6.78-1.4c1.26-.26 2.4-.48 3.43-.66 8.34-1.47 8.83-.23 10 6.63l10.35 58.73c1.39 7.88.91 9.17-10.19 14l-6.53 2.81a1.23 1.23 0 0 0-.63 1.35l.59 3.33a1.38 1.38 0 0 0 .56.89 1 1 0 0 0 .71.15l.21-.06 52.83-23.3a1.19 1.19 0 0 0 .62-1.34l-.5-2.87a1.36 1.36 0 0 0-.55-.88 1 1 0 0 0-.92-.1l-4.1 1.77a43.64 43.64 0 0 1-8.28 3c-2.82.49-3.72-.18-4.72-5.88l-9.59-54.37a12.06 12.06 0 0 0-4-7.52l25.59-5.39c1.42-.3 2.8-.57 4.13-.8 13.73-2.42 30.53-2.81 32.63 9.11 1.65 9.33-9.35 18.35-31 25.39l-17.22 5.61a1.19 1.19 0 0 0-.7 1.38l.8 4.54a1.34 1.34 0 0 0 .51.85 1 1 0 0 0 .89.15l10.79-3.67c10.38-3.53 16.13-1.2 25.41 3.68l7.13 3.52c7.38 3.52 12.8 5.36 18.7 4.32a27.92 27.92 0 0 0 6.42-2.07c4.57-2 10.67-5.81 17.13-9.81l2.33-1.44a1.28 1.28 0 0 0 .41-1.6l-.88-2a1.23 1.23 0 0 0-.64-.65.91.91 0 0 0-.82 0l-5.84 3.22-1.94.83c-5.22 2.27-8.27 1-17.7-3l-4.5-2a42.38 42.38 0 0 0-17.59-3.52c19.53-8.75 31.7-20.49 30.09-29.44zm-80.58 75.73a39.33 39.33 0 0 0-.61-6.81L618 256.69c0-.28-.1-.59-.14-.93a23.8 23.8 0 0 0-.46-2.61l.47.21c2 .87 2.6 3.05 2.81 4.27l9.8 55.37a27.34 27.34 0 0 0 2.1 6.59zm62.73-36.33l4.35 2.16 1.59.65c2.62 1.06 4.53 1.85 6.07 2.41-3.09.28-6.7-.83-13.51-4.05L683 282.6l-.59-.32a29.25 29.25 0 0 1 9.13 2.58zm4-27.71a15.75 15.75 0 0 0 .75-8.14 15.55 15.55 0 0 0-3.52-7.68c4 1.08 7.55 3 8.13 6.24.4 2.53-1.6 5.99-5.41 9.58zM151.29 648l-6.78 1.36a1.17 1.17 0 0 0-.81 1.4l.44 2.53a1.29 1.29 0 0 0 .47.81.94.94 0 0 0 .79.22l59.34-11.5c36.26-7 57.35-30.27 52.49-57.83-3.92-22.22-22.57-33.17-48.68-28.56a94.71 94.71 0 0 0-18.31 5.31l-57.36 22.7a1.21 1.21 0 0 0-.66 1.36l.47 2.67a1.36 1.36 0 0 0 .54.87.92.92 0 0 0 .9.11l6.57-2.54a50.1 50.1 0 0 1 8.25-2.71c2.94-.52 3.56.17 4.41 5l8.69 49.31c1.08 5.94 1.28 7.02-10.76 9.49zm97.19-60.68a35.22 35.22 0 0 1-3.64 23.42 54.19 54.19 0 0 0 .3-22.2c-1.49-8.42-4.23-15.29-8.2-20.53 6.06 4.13 10.06 10.7 11.54 19.26zm-57.59-18.19a68.27 68.27 0 0 1 12.32-3.54c18.63-3.28 29.87 5.2 33.4 25.2 4.27 24.19-7.53 39.85-34.12 45.3l-22.12 4.54a9.24 9.24 0 0 0 1.19-7.1l-8.84-50.14c-.5-2.84-1.59-4.74-3.5-6zM164.27 586l8.7 49.32a7.08 7.08 0 0 1-1.71 5.72 34.32 34.32 0 0 0-.59-4.44l-8.85-50.17a21.79 21.79 0 0 0-1.32-5c1.39.41 3.16 1.12 3.77 4.57zm136.66 31.19c9.33 5.1 21.33 6.55 34.73 4.19l.77-.14c26.22-4.89 40.73-25.8 36.1-52l-9.85-55.86c-1.86-10.55-1.69-11.86 9.51-16.2l4.62-1.79a1.19 1.19 0 0 0 .66-1.36l-.8-4.54a1.32 1.32 0 0 0-.54-.87.92.92 0 0 0-.9-.11l-42.53 16.8a1.2 1.2 0 0 0-.66 1.36l.74 4.21a1.35 1.35 0 0 0 .54.87.92.92 0 0 0 .9.12l6.32-2.46a45.23 45.23 0 0 1 7.28-2.34c3.74-.66 4.89.33 6.41 9l9.77 55.2c3.71 21.06-7.68 37.4-29 41.62l-1 .19c-11.69 2.07-26.38.27-30-20l-9.67-54.82c-1.59-9-1.12-10.45 10.26-14.87l6.33-2.45a1.18 1.18 0 0 0 .66-1.35l-.71-4a1.38 1.38 0 0 0-.54-.87.92.92 0 0 0-.9-.11l-53.23 21.06a1.21 1.21 0 0 0-.66 1.36l.64 3.62a1.35 1.35 0 0 0 .54.87.92.92 0 0 0 .9.12l4.38-1.7a45.67 45.67 0 0 1 7.56-2.45c3.52-.62 4.35.48 5.57 7.4l8.39 47.54c1.87 10.99 7.92 19.57 17.41 24.76zm-15.66-84.3a41.65 41.65 0 0 0 .54 8l9.55 54.13a43.63 43.63 0 0 0 1.94 7.47 28.42 28.42 0 0 1-5.05-12.27l-8.5-48.18a38 38 0 0 0-2.34-7.7zm175.48 14.39c31.8-8.32 49.86-32.59 45-60.39-4.06-23-21.61-34.63-45.82-30.36a75.34 75.34 0 0 0-14.65 4.24L383.5 485.2a1.21 1.21 0 0 0-.66 1.36l.81 4.6a1.35 1.35 0 0 0 .54.87.92.92 0 0 0 .9.12l6.57-2.55a39.75 39.75 0 0 1 7-2.23c3.79-.67 4.94.23 6.67 10.08L420 580.64c2.09 11.85 1.36 13-9.78 15.22l-6.78 1.37a1.17 1.17 0 0 0-.81 1.4l.77 4.35a1.38 1.38 0 0 0 .46.82 1 1 0 0 0 .8.22L462 592.9a1.16 1.16 0 0 0 .81-1.4l-.84-4.76a1.34 1.34 0 0 0-.47-.81 1 1 0 0 0-.79-.22l-6.57 1.29c-10.94 2.22-12.38 1.75-14.56-10.67l-4-22.47zm36.47-57.93a35.74 35.74 0 0 1-2.84 21.7 63.81 63.81 0 0 0-.47-20.29 55.42 55.42 0 0 0-6.81-19.18c5.3 4.03 8.77 10.09 10.12 17.77zm-67.53 100.1a70.8 70.8 0 0 0-1.12-10.63l-14.82-84.05c-.25-1.44-.69-3.94-1.4-6.51a14.88 14.88 0 0 1 4.13 7.69L431 578.18a65.74 65.74 0 0 0 2.87 10.42zm-10.21-108l26.9-10.32a51.59 51.59 0 0 1 9.46-2.71c16.06-2.83 25.93 5.55 29.34 24.91 4 22.92-5.42 38.21-27.35 44.22l-23.94 6.55-9-50.78c-.89-5.55-2.72-9.46-5.41-11.89zm217.62 92.03l4.35-.41h.07a1 1 0 0 0 .64-.42 1.35 1.35 0 0 0 .21-.91l-7.73-61.48a1.3 1.3 0 0 0-.47-.88 1 1 0 0 0-.87-.22l-4.48 1.13a1.15 1.15 0 0 0-.77 1.33c4.31 33.25-3.14 37.82-25.54 42.41l-38.82 8a29.1 29.1 0 0 0 1.95-16.91l-7.81-44.27 11.93-3.45a30.59 30.59 0 0 1 3.24-.78c7.48-1.32 9.44 2.68 14 28.54a1.34 1.34 0 0 0 .49.83 1 1 0 0 0 .84.2l4.48-1.11a1.18 1.18 0 0 0 .77-1.4l-13-73.78a1.31 1.31 0 0 0-.52-.86 1.05 1.05 0 0 0-.88-.15l-4.41 1.52a1.2 1.2 0 0 0-.7 1.37c5.11 28.95 3.83 31.56-6.44 34.65l-11.71 3.52-7.25-41.12a24.28 24.28 0 0 0-7.31-14.08l27.06-10.38a77.64 77.64 0 0 1 13.85-4.37c11-1.94 17.23 1.71 23.06 27.65a1.37 1.37 0 0 0 .54.81 1 1 0 0 0 .85.13l4.42-1.49a1.19 1.19 0 0 0 .68-1.44l-13.51-58.95a1.31 1.31 0 0 0-.59-.84 1 1 0 0 0-.92 0l-4 2.05a1.23 1.23 0 0 0-.57 1.39l3.05 13.62c-1.31-.54-2.62-.5-5.61.69l-83.13 32.91a1.19 1.19 0 0 0-.66 1.35l1 5.55a1.35 1.35 0 0 0 .54.87.92.92 0 0 0 .9.12l6.57-2.55a37.67 37.67 0 0 1 6.51-2.07c4.44-.78 5.58 1.11 7.62 12.66l17.6 99.82c2.54 14.43 1.85 15.78-9.29 18l-6.78 1.37a1.17 1.17 0 0 0-.81 1.4l.93 5.24a1.33 1.33 0 0 0 .46.82 1 1 0 0 0 .8.22l97-18.81c2.76-.54 4.12-1.17 5.11-2.33l1.86 14.16a1.19 1.19 0 0 0 1.2 1.13zm-80.05-26.56a16.69 16.69 0 0 1-1 9.33c-.29-2.11-.64-4.09-.94-5.79L537.4 449.78c-.24-1.34-.62-3.49-1.12-5.85a12.58 12.58 0 0 1 3.93 7.51zm144.58-86.67l-17.33 4.94a1.2 1.2 0 0 0-.74 1.39l1.73 9.83a1.33 1.33 0 0 0 .5.84 1 1 0 0 0 .85.18l10.91-3c10.24-2.81 16.57 4.92 28.44 22.7l8.87 13.51C748 531.33 755 539.71 764.4 538h.19c5.38-1 12.1-6 19.23-11.17l.47-.35a1.28 1.28 0 0 0 .42-1.34l-1.71-6.93a1.3 1.3 0 0 0-.62-.83 1 1 0 0 0-.92 0l-5.78 3.27-2 .4c-5 .87-9.52-6.2-20.52-23.32l-6.26-9.57c-7.93-12-18.39-20.84-25.85-21.92 21.36-9.87 33.38-36.31 28.63-63.27-5.23-29.64-25.52-45.05-53-40.21a72.08 72.08 0 0 0-14 4l-57.37 22.71a1.19 1.19 0 0 0-.65 1.35l1.14 6.47a1.32 1.32 0 0 0 .54.87.92.92 0 0 0 .9.12l6.57-2.55a34.13 34.13 0 0 1 6.13-1.93c4.77-.84 6 1.42 8.46 15.18l20.43 115.89c3 16.76 2.22 18.5-8.8 20.72l-6.74 1.41a1.17 1.17 0 0 0-.81 1.41l1.07 6.11a1.34 1.34 0 0 0 .47.81 1 1 0 0 0 .8.23l55.07-10.67a1.16 1.16 0 0 0 .81-1.4l-1.15-6.51a1.33 1.33 0 0 0-.46-.82 1 1 0 0 0-.8-.22l-4.27.86c-10.93 2.2-12.49 1-15.53-16.18l-20.26-114.85c-1.4-8-3.62-13.59-6.76-17.14l26-10a42.84 42.84 0 0 1 7.89-2.24c17.28-3.05 28.3 8.17 32.74 33.35 4.76 26.76-4.41 44.26-26.47 50.51zm62.55 76.56zm-23.18-40l5.46 8.75 3.85 5.79c4.62 7 7.25 10.93 9.51 13.78-3.7-.66-8-5.58-18.75-22.71l-8.88-13.56-1.26-2c-.92-1.45-1.82-2.86-2.72-4.21A53.86 53.86 0 0 1 741 496.83zM729 382.4c6.31 5.44 10.5 13.3 12.21 23a48.43 48.43 0 0 1-3.52 27.49 89.42 89.42 0 0 0-1-25.66c-1.86-10.15-4.38-18.35-7.69-24.83zm-49.67 155.87a128.56 128.56 0 0 0-1.86-15.22l-20.58-116.74c-.1-.59-.21-1.25-.32-2-.28-1.77-.62-4-1.17-6.39l.26.24c2.49 2.26 3.72 7.91 4.13 10.23l20.09 114a119.3 119.3 0 0 0 3.75 15zM613.7 737.76c3.53-.4 7.12-.91 10.67-1.54 42.94-7.57 80-30.75 80.82-50.71v-1.43a15.29 15.29 0 0 0-6.19-11.51c-10.43-8.35-33.09-10.43-60.61-5.58a206 206 0 0 0-24 5.76c-7 2.15-14.27 4.77-22.18 8-13.87-7.8-32.87-14-55.19-17.89 44.66-16.69 81.82-27.36 116.64-33.5a377.93 377.93 0 0 1 69.55-6.11h.2a1.12 1.12 0 0 0-.08-2.22c-1.29-.39-9.13-2.77-12.14-3.15-18.54-2.44-38.57-1.68-61.22 2.32C612.67 626.75 573 641.23 525 661a365.81 365.81 0 0 0-84.57-1.45c-11.76 1.24-23.31 2.85-34.34 4.79-36.62 6.46-66.92 16.35-87.68 28.61a255.56 255.56 0 0 0-66.62 2.61c-24.15 4.26-38.59 11.49-40.65 20.35a10 10 0 0 0 2.45 9c10.31 12.37 48.62 18.37 80 17.1 12.61 21.9 57.48 32.34 105 24.29l1.71-.3c42.65-7.52 71.59-20.78 99.84-34.87 38.79 6.68 71.76 9.06 103.73 7.48 1.2 0 2.47-.12 3.82-.23-14.35 18.32-50.69 34.14-98.19 42.52a394.09 394.09 0 0 1-53 5.64 342.07 342.07 0 0 1-48.28-1.34 1.1 1.1 0 0 0-1 .42 1.14 1.14 0 0 0-.17 1.08c.21.58 2.55 5.78 18 7.66 24.95 3 52.31 2.08 79.12-2.65 51-8.99 93.89-30.14 109.53-53.95zM624 726.2q-2.62.46-5.23.86a27.3 27.3 0 0 0 1.15-7.86c0-12.56-6.42-23.61-19-32.86 4.89-1.67 10.42-3.42 17.57-5.57a236.89 236.89 0 0 1 26.25-6.25c25.1-4.42 44.8-3.29 52.71 3a8.78 8.78 0 0 1 3.58 6.58 11.07 11.07 0 0 1 0 1.4c-1.22 13.38-28.63 32.16-77.03 40.7zm-20.82 2.69c-28.51 2.07-58.87 1.07-92.68-3l2-1c24-12.15 48.92-24.7 82.36-36.37 12.82 8.66 19.44 19.15 19.67 31.16a23.51 23.51 0 0 1-1.24 8.23c-3.02.32-6.29.66-10.13.98zm-291.1 1.65c-5.35.76-11.26 1.34-17.59 1.73-1.07-10.17 7.67-21.44 24.61-31.75 28.89 1.5 56.32 6 77.76 10.07-30.76 9.81-58.43 16.34-84.8 19.95zm193.09-61.38c-31.89 13.21-64.86 26.86-98.69 38.25-27.52-5.63-52.36-10.52-75.87-13.3 20.19-10 46.64-18 76.83-23.33 10.78-1.9 22.05-3.45 33.52-4.6a392.15 392.15 0 0 1 73.08-.69zm-192.73 71c2.46-.37 4.92-.78 7.39-1.21 25.84-4.56 54.44-12.8 90-25.92 9.77 2 19.5 4 29.22 6.05 16.73 3.52 34 7.15 51.27 10.26-28.76 12.35-54.94 20.36-82.11 25.15-3.31.59-6.66 1.13-10 1.61-45.59 6.58-86.69.5-99.54-14.46 4.55-.31 9.18-.81 13.75-1.49zm273.73-56.8c-14.31 6.18-28.6 13.41-43.69 21-13.25 6.7-27 13.63-41.46 20.23-28.67-3.91-57.16-9.62-82.61-14.79 18.58-7 37.07-14.53 56.57-22.45 16.81-6.82 34.19-13.88 51.59-20.58 24.15 3.17 44.69 8.88 59.58 16.58zm-339.63 20.25a260.86 260.86 0 0 1 33.55-3.49c9.1-.4 18.44-.44 27.83-.14-13.06 10.2-19.15 21.36-17.63 32.43v.1c-34.7 1.69-66.14-3.24-73.46-11.57a5.59 5.59 0 0 1-1.56-4.93c.61-3.28 9.15-8.5 31.27-12.4zM154.25 194.4v1.48a15.62 15.62 0 0 0 6.31 11.75c10.78 8.62 34.28 10.76 62.87 5.72a213.8 213.8 0 0 0 24.57-5.88c7.27-2.22 14.78-4.91 23-8.22 14.35 8 34 14.36 57.16 18.39-46 17.1-84.32 28-120.22 34.37a398.8 398.8 0 0 1-72.37 6.37 1.12 1.12 0 0 0-.34 2.2c.38.11 9.39 2.87 12.71 3.29 19.24 2.5 40 1.7 63.57-2.45 38.56-6.8 79.47-21.65 129-41.86a380.48 380.48 0 0 0 87.41 1.44c12.32-1.29 24.42-3 36-5 37.64-6.63 68.82-16.77 90.18-29.31a271.39 271.39 0 0 0 37.26.78 270.32 270.32 0 0 0 31.8-3.51c24.84-4.38 39.69-11.78 41.81-20.84a10.24 10.24 0 0 0-2.48-9.15c-10.59-12.72-50.24-18.9-82.76-17.58-13-22.48-59.39-33.19-108.46-24.92l-2.11.37c-43.91 7.74-73.74 21.33-102.87 35.77-40.09-6.86-74.18-9.3-107.23-7.67-1.27 0-2.62.13-4 .25 14.72-18.87 52.18-35.12 101.15-43.75a409.38 409.38 0 0 1 55.14-5.87A354.46 354.46 0 0 1 461.2 92a1.08 1.08 0 0 0 .31 0 1.12 1.12 0 0 0 .91-1.3 1 1 0 0 0-.27-.55c-.75-1.38-4.23-5.77-18.35-7.47-25.8-3.14-54.23-2.18-82.03 2.72-52.6 9.28-96.83 31-112.95 55.37-3.7.42-7.48 1-11.22 1.62-44.28 7.8-82.45 31.61-83.35 52.01zm93.66-35a24 24 0 0 1 1.28-8.48c3.14-.4 6.42-.74 10.51-1.08 29.5-2.13 60.91-1.11 95.91 3.13l-2.13 1.03c-24.88 12.48-50.61 25.38-85.22 37.39-13.26-8.89-20.12-19.66-20.35-32.01zm-10-6.76q2.85-.5 5.69-.93a28 28 0 0 0-1.2 8.1c0 12.92 6.64 24.26 19.64 33.75-5.06 1.73-10.79 3.53-18.22 5.75a246.52 246.52 0 0 1-26.92 6.38c-26.11 4.61-46.59 3.44-54.77-3.11a9 9 0 0 1-3.68-6.74 11.73 11.73 0 0 1 0-1.44c1.29-13.69 29.55-32.97 79.49-41.78zm306.53-2c5.42-1 10.85-1.81 16.14-2.53 5.56-.78 11.69-1.38 18.23-1.78a.15.15 0 0 1 0 .07c1.1 10.45-8 22-25.49 32.64-29.93-1.54-58.33-6.2-80.51-10.35a548.63 548.63 0 0 1 71.66-18.09zm-183.39 60.47c32.95-13.56 67-27.58 102-39.27 28.49 5.78 54.19 10.8 78.54 13.65-20.78 10.21-48 18.46-79.1 23.94-11.27 2-23.07 3.61-35.07 4.81a407.26 407.26 0 0 1-75.69.71zm199.21-72.85q-4 .6-8 1.31c-26.63 4.69-56.08 13.14-92.68 26.57-10.11-2-20.34-4.15-30.23-6.21-17.32-3.61-35.19-7.34-53.09-10.55 29.66-12.65 56.64-20.88 84.64-25.82 3.53-.62 7.12-1.19 10.67-1.71 47.19-6.77 89.72-.51 103 14.88-4.76.32-9.57.83-14.31 1.53zM277.2 196.6c14.81-6.34 29.6-13.78 45.22-21.63 13.7-6.88 27.87-14 42.88-20.78 29.69 4 59.18 9.88 85.51 15.19-19.25 7.23-38.39 15-58.58 23.09-17.38 7-35.36 14.26-53.35 21.15-25.02-3.23-46.27-9.1-61.68-17.02zm351.34-20.86a268.85 268.85 0 0 1-34.88 3.62c-9.45.41-19.14.46-28.85.15 13.72-10.59 19.87-21.78 18.28-33.33v-.14c36-1.74 68.51 3.33 76 11.92a5.72 5.72 0 0 1 1.59 5c-.6 3.41-9.39 8.77-32.14 12.78zm-415.35-43.13q6 .87 12-3.27a31.48 31.48 0 0 0 4.25-3.57 30.15 30.15 0 0 0 3.46-4.25l-5.64-8.08.24-.88 2.11-1.73-1.41-2-12.2 8.5 1.41 2 2.89-1.75.94.06 5 7.13-.57.4a10.09 10.09 0 0 1-8.22 1.82 12.18 12.18 0 0 1-7.28-5.34c-2.14-3.06-3-6-2.7-8.78a9.84 9.84 0 0 1 4.57-7 6.58 6.58 0 0 1 .88-.51q.49-.24 1.38-.6l1 .12 3.8 3.73 3.23-2.26-4.49-6.45a46.22 46.22 0 0 0-5.08 2.11 33.39 33.39 0 0 0-4.32 2.54q-6.17 4.29-7.56 10.22a13.84 13.84 0 0 0 2.48 11.48 14.15 14.15 0 0 0 9.83 6.36zm20.89-41.05l.77.3 6.69 12.14a27.8 27.8 0 0 0 2.76 4.31 8.37 8.37 0 0 0 2.37 1.89 9.13 9.13 0 0 0 5.25 1 16.21 16.21 0 0 0 6.15-2.11q5.69-3.12 6.84-7T263 92.68l-6.89-12.52.17-.82 2.34-1.48-1.21-2.2-9.53 5.25 1.21 2.2 2.78-1.34.75.31 6.63 12c1.5 2.73 2.15 4.85 1.92 6.34s-1.3 2.78-3.25 3.85-3.78 1.43-5.22.91-2.81-2-4.1-4.3l-7-12.76.16-.8 2.38-1.51-1.22-2.19-12.78 7 1.21 2.2zm52.24 2.74l-1-2.31-2.65.82-.62-.32-.51-6.72 8.46-3.62 4.63 5-.09.66-2.61 1.35 1 2.31L305.76 86l-1-2.31-2.55.73-19.57-20.29-5.72 2.45 1.35 28.25-2.51 1.26 1 2.31zm-5.58-21.72l6.95 7.42-6.34 2.71zM308 57.36l.85.39 6.62 21.15-.42 1-2.58 1 .74 2.39 13.85-4.33-.75-2.39-2.77.68-.89-.58-2.73-8.67.4-.13a5.31 5.31 0 0 1 3.47-.07 6.9 6.9 0 0 1 2.91 2.52q.42.57 1.2 1.77a11 11 0 0 0 3.1 3.58 6.41 6.41 0 0 0 3 .81 10.69 10.69 0 0 0 3.68-.55c.75-.23 1.58-.52 2.5-.85s1.92-.71 3-1.14l-.76-2.44-.48.15a6.23 6.23 0 0 1-3.29.35 5.16 5.16 0 0 1-2.5-1.91c-.21-.27-.5-.64-.89-1.12a13.72 13.72 0 0 0-4.59-4.24 6.43 6.43 0 0 0-2.06-.56 10.92 10.92 0 0 0-2.55 0 11 11 0 0 0 5.06-4.17 6.37 6.37 0 0 0 .46-5.35 6.08 6.08 0 0 0-4.09-4.31c-2-.65-4.63-.47-7.81.52l-15.13 4.74.75 2.4zm9.81-2.81a5.24 5.24 0 0 1 4.05.17 5 5 0 0 1 2.46 3.14 5.15 5.15 0 0 1-.26 4.38A6.86 6.86 0 0 1 320 65l-.49.13-.47.13-3.15-10.06zm40.98 15.9l-.51-2.45-2.76.27-.54-.43.84-6.69 9-1.85 3.53 5.84-.22.62-2.83.8.51 2.45 13.69-2.81-.5-2.47-2.64.2-15.13-23.77-6.09 1.25-4.35 28-2.71.73.51 2.46zm-1.12-22.39l5.33 8.65-6.75 1.39zm39.88 13.48l-2.9.04-.69-.76-1.85-18.42 16.42 20.48 6.84-.69-2.55-25.34.74-.9 2.5-.65-.23-2.27-10.88 1.1.23 2.26 2.84.11.84.75 1.69 16.78-14.24-17.87-.12-1.16-12.12 1.22.25 2.5 2.9-.13.63.58 2.21 22.04-.74.91-2.59.51.24 2.42 10.82-1.09-.24-2.42zm34.49-25.51l.74-.53h4.17l.01 22.54-.82.82-2.89.17v2.51l15.12-.01v-2.51l-2.85-.16-.82-.82-.01-22.54 4.09-.01.78.53.91 5.21h3.63l-.01-8.67-26.54.02v8.66h3.63l.86-5.21zm56.89 19.88l-3.57-.33-1.21 4.7-.66.63-8.98-.82.95-10.37 4.51.41.58.67.16 3.13 3.04.28.97-10.56-3.04-.28-.73 3.04-.68.55-4.52-.41.88-9.55 7.64.7.56.53.35 3.89 3.65.34.66-7.18-23.66-2.17-.23 2.49 2.86.44.64.69-2.03 22.07-.77.75-2.89-.1-.23 2.5 24.99 2.29.76-8.33zm35.73 6.07l-3.52-.66-1.64 4.57-.71.57-8.87-1.64 1.9-10.24 4.46.82.51.72-.13 3.13 3 .56 1.94-10.43-3-.55-1.01 2.96-.73.48-4.45-.82 1.74-9.44 7.55 1.4.51.6-.01 3.9 3.6.66 1.32-7.08-23.36-4.34-.46 2.46 2.82.7.56.75-4.05 21.78-.83.68-2.87-.36-.46 2.47 24.67 4.58 1.52-8.23zM560 76.27q5-2.47 7-9.16t-1-11.41c-2-3.19-5.37-5.5-10.21-6.9l-14.48-4.21-.7 2.4 2.73 1 .44 1L537.6 70l-.9.6-2.82-.6-.7 2.41 14.47 4.2q7.35 2.13 12.35-.34zm-15.14-3.48l6.47-22.27L553 51c3 .87 4.89 2.42 5.81 4.68s.83 5.25-.26 9S556 71 554 72.44s-4.46 1.7-7.41.85z"/><path d="M588 76.4a4.67 4.67 0 0 0-3.51 8.6c123.43 50.6 210.93 159.12 234.06 290.31C848.4 544.56 761.3 715 606.76 789.71a4.67 4.67 0 0 0 2.84 8.8 4.56 4.56 0 0 0 1.22-.39C769.11 721.57 858.31 547 827.74 373.69 804.05 239.32 714.44 128.19 588 76.4zM415.83 827.62A387.6 387.6 0 0 1 183.61 732C117.16 673.64 73.9 596.63 58.5 509.32c-23.88-135.43 26.82-274.51 132.32-363a4.67 4.67 0 0 0-6-7.15c-108 90.6-160 233.05-135.51 371.75C65.08 600.36 109.39 679.23 177.45 739c66.07 58.06 150.54 92.83 237.84 97.9a4.83 4.83 0 0 0 1.08-.06 4.67 4.67 0 0 0-.54-9.26zm27.37-6.83a8.9 8.9 0 0 0-6.36 2.29 8.74 8.74 0 0 0 0 12 8.8 8.8 0 0 0 6.32 2.2 17.55 17.55 0 0 0 4-.45 16.91 16.91 0 0 0 3.73-1.36v-2.94a13.59 13.59 0 0 1-3.09 1.3 11.46 11.46 0 0 1-3.15.43 4.31 4.31 0 0 1-3.34-1.35 5.51 5.51 0 0 1-1.3-3.73h11v-.4a8.13 8.13 0 0 0-2-5.87 7.66 7.66 0 0 0-5.81-2.12zm2.08 6.35h-5.18V827a5.63 5.63 0 0 1 .7-3.12 2.33 2.33 0 0 1 2.08-1 2 2 0 0 1 1.82 1 6.84 6.84 0 0 1 .58 3.26zm17.2-4.37a3 3 0 0 1 1.73-.57 4.67 4.67 0 0 1 1.11.07 6.55 6.55 0 0 1 1.24.36l.45.41.58 2.48 2.28-.14-.31-4.86c-1.26-.21-2.4-.35-3.4-.43a21 21 0 0 0-2.72 0 8.74 8.74 0 0 0-5.05 1.71 4.24 4.24 0 0 0-1.72 3.72 3.5 3.5 0 0 0 1.22 2.5 16 16 0 0 0 4.67 2.3l.77.28q2.3.8 2.37 2a1.59 1.59 0 0 1-.56 1.37 2.78 2.78 0 0 1-1.7.61 7.29 7.29 0 0 1-1.68-.09 7.94 7.94 0 0 1-1.7-.49l-.39-.38-.57-2.87-2.27.14.33 5.3a35.77 35.77 0 0 0 3.6.48 23.19 23.19 0 0 0 3.22 0 8.77 8.77 0 0 0 5.16-1.83A4.48 4.48 0 0 0 471 831a3.6 3.6 0 0 0-1.07-2.47 9.68 9.68 0 0 0-3.53-1.8c-.35-.12-.85-.28-1.48-.47-2-.58-3-1.32-3-2.22a1.42 1.42 0 0 1 .56-1.27zm19.39-8.01l-2.81.31-1.58 3.9-2.54 2 .17 1.45 2.27-.25.9 8.2a16.59 16.59 0 0 0 .37 2.26 2.44 2.44 0 0 0 .55 1.06 3.33 3.33 0 0 0 1.63.93 6 6 0 0 0 2.26.14 11.87 11.87 0 0 0 2.59-.62 23.71 23.71 0 0 0 3.05-1.31l-.2-1.82c-.35.1-.66.18-.94.24s-.56.11-.8.14a3.77 3.77 0 0 1-2.48-.3 2.94 2.94 0 0 1-.87-2.12l-.81-7.38 4.8-.53-.26-2.33-4.8.53zm14.87 12.13a2.85 2.85 0 0 0-2 1.19 3 3 0 0 0-.54 2.28 2.88 2.88 0 0 0 1.18 2 2.91 2.91 0 0 0 2.23.54 2.94 2.94 0 0 0 2-1.18 2.84 2.84 0 0 0 .58-2.22 3 3 0 0 0-1.2-2 2.94 2.94 0 0 0-2.25-.61zm23.95-5.31v2.91l-8.58 1.71a32.36 32.36 0 0 0 7.18-7.25 8.22 8.22 0 0 0 1.54-6.13 5.62 5.62 0 0 0-3-4.14 9.34 9.34 0 0 0-6.16-.52 10.33 10.33 0 0 0-5.43 2.59 4.46 4.46 0 0 0-1.44 4.2 2.48 2.48 0 0 0 1.15 1.72 3 3 0 0 0 2.22.3 5.17 5.17 0 0 0 1.16-.4 10 10 0 0 0 1.3-.77l-.94-4.71.24-.07.38-.09a3.76 3.76 0 0 1 4.86 3.24 8.62 8.62 0 0 1-1.22 5.76 43.54 43.54 0 0 1-6.39 8.12l.6 3 16.38-3.26-1.34-6.71zm20.95-17.52a8.17 8.17 0 0 0-7.16-1.16 7.94 7.94 0 0 0-5.55 4.53q-1.54 3.47-.22 8.44t4.38 7.23a7.92 7.92 0 0 0 7.06 1.19 8.08 8.08 0 0 0 5.64-4.56q1.58-3.5.26-8.46c-.87-3.27-2.35-5.72-4.41-7.21zm-.21 15.49c-.12 1.51-.72 2.41-1.79 2.69s-2-.21-2.86-1.46a22.74 22.74 0 0 1-2.48-6.43 21.88 21.88 0 0 1-1-6.72c.12-1.55.7-2.46 1.73-2.74s2 .21 2.89 1.47a30.88 30.88 0 0 1 3.5 13.19zm25.28-5.79l-.49-.34-6.05-18.15-3.11 1.04-6.09 4.68.61 1.81 4.12-2.01.51.21 4.69 14.06-.2.64-3.44 1.34.59 1.75 12.8-4.26-.58-1.73-3.36.96zm20.79-18.61a8.39 8.39 0 0 0-5.85.45 11.53 11.53 0 0 0-2 1 18.61 18.61 0 0 0-2 1.54l-1.65-4.1 10.15-4.1-1.53-3.81-13.1 5.29 4.3 10.65a19.26 19.26 0 0 1 1.95-1.4 11.93 11.93 0 0 1 1.91-1 6.23 6.23 0 0 1 4.14-.39 3.77 3.77 0 0 1 2.56 2.31 4.32 4.32 0 0 1 0 3.49 4.61 4.61 0 0 1-2.63 2.41c-.14.06-.36.13-.65.22h-.15L580.4 804a9.94 9.94 0 0 0-1.1.14 5 5 0 0 0-.87.25 2.94 2.94 0 0 0-1.7 1.59 2.75 2.75 0 0 0 0 2.25 3.49 3.49 0 0 0 2.93 2.08 9.61 9.61 0 0 0 5.15-.79 11.69 11.69 0 0 0 6-4.67 6.7 6.7 0 0 0 .42-6.2 5.76 5.76 0 0 0-3.73-3.5z"/><path d="M361.72 6.69c-237.67 41.91-396.93 269.36-355 507s269.36 396.93 507 355 396.93-269.36 355-507-269.33-396.9-507-355zm148.76 843.67C283 890.48 65.2 738 25.08 510.48S137.43 65.19 365 25.07 810.24 137.43 850.36 365 738 810.24 510.48 850.36z"/></g></svg>