<svg xmlns="http://www.w3.org/2000/svg" viewBox="0 0 100 127.63"><g data-name="レイヤー 2"><g data-name="レイヤー 1" fill="#fff"><path d="M50 0a50 50 0 1 0 50 50A50 50 0 0 0 50 0zm-5.6 61.72V37.85l18.18 11.94z" opacity=".8"/><path d="M12.78 121a2.85 2.85 0 0 1-.3 1.36 2.56 2.56 0 0 1-.81.89 3.53 3.53 0 0 1-1.17.49 6.21 6.21 0 0 1-1.38.16H8v3.47H5.8v-9.21h3.38a6.35 6.35 0 0 1 1.41.15 3.35 3.35 0 0 1 1.14.48 2.31 2.31 0 0 1 .77.87 3 3 0 0 1 .28 1.34zm-2.23 0a1 1 0 0 0-.12-.53 1 1 0 0 0-.36-.33 1.28 1.28 0 0 0-.5-.15A3.56 3.56 0 0 0 9 120H8v2.17h1a3.81 3.81 0 0 0 .59-.05 1.69 1.69 0 0 0 .52-.19 1 1 0 0 0 .36-.34 1.08 1.08 0 0 0 .08-.59zm4.87 6.39v-9.21h2.23v7.27h3.56v1.94zm14.37 0l-.71-1.81h-3.56l-.68 1.81h-2.42l3.86-9.21h2.16l3.82 9.21zm-2.46-6.75l-1.18 3.16h2.32zM38 123.49v3.9h-2.2v-3.9l-3.46-5.31H35l2 3.41 2-3.41h2.6zm18.13 3.9v-6.52l-2.4 6.52h-1.54l-2.32-6.52.05 6.52h-2.13v-9.21H51l2.1 5.9h.05l2-5.9h3.22v9.21zm14.96-4.64a5.15 5.15 0 0 1-.37 2 4.51 4.51 0 0 1-2.64 2.54 5.89 5.89 0 0 1-4 0 4.53 4.53 0 0 1-2.63-2.54 5.15 5.15 0 0 1-.38-2 5.09 5.09 0 0 1 .38-2 4.27 4.27 0 0 1 1-1.51 4.61 4.61 0 0 1 1.58-1 6.23 6.23 0 0 1 4 0 4.66 4.66 0 0 1 1.59 1 4.27 4.27 0 0 1 1 1.51 5.09 5.09 0 0 1 .47 2zm-2.37 0a3.14 3.14 0 0 0-.2-1.12 2.56 2.56 0 0 0-.54-.89 2.61 2.61 0 0 0-.83-.59 2.83 2.83 0 0 0-2.14 0 2.61 2.61 0 0 0-.83.59 2.42 2.42 0 0 0-.54.89 3.14 3.14 0 0 0-.19 1.12 3.31 3.31 0 0 0 .2 1.15 2.7 2.7 0 0 0 .54.9 2.42 2.42 0 0 0 .82.59 2.66 2.66 0 0 0 1.07.22 2.6 2.6 0 0 0 1.9-.81 2.7 2.7 0 0 0 .54-.9 3.31 3.31 0 0 0 .2-1.15zm9.55 4.64h-2.22l-3.48-9.21h2.49l2.13 6.53h.06l2.11-6.53h2.46zm5.6 0v-9.21h2.24v9.21zm5.44 0v-9.21h6.19v1.87h-4v1.75h3.83v1.78h-3.88v1.91h4.28v1.9z"/></g></g></svg>