<svg xmlns="http://www.w3.org/2000/svg" viewBox="0 0 14.63 25.33"><g data-name="レイヤー 2"><path d="M5.69 10.7h1.23a3.85 3.85 0 0 0 2.84-1 3.37 3.37 0 0 0 1-2.53 3.61 3.61 0 0 0-1-2.58 3.67 3.67 0 0 0-2.59-1A3.32 3.32 0 0 0 5 4.31a3.69 3.69 0 0 0-1.29 2.27H.14a7.28 7.28 0 0 1 2.24-4.67A6.48 6.48 0 0 1 7 0a7 7 0 0 1 7.35 7.09 7.68 7.68 0 0 1-.51 2.77 5.89 5.89 0 0 1-2.14 2.38A6.1 6.1 0 0 1 14 14.7a7 7 0 0 1 .67 3 7.35 7.35 0 0 1-2.17 5.52 7.55 7.55 0 0 1-5.4 2.1 6.85 6.85 0 0 1-4.51-1.64A7.85 7.85 0 0 1 0 18.94h3.57a5 5 0 0 0 1.35 2 3.37 3.37 0 0 0 2.36.81 3.6 3.6 0 0 0 2.65-1.08 3.83 3.83 0 0 0 1.13-2.87 4 4 0 0 0-1.13-2.94 3.86 3.86 0 0 0-2.74-1h-1.5z" fill="#fff" data-name="レイヤー 1"/></g></svg>