<svg xmlns="http://www.w3.org/2000/svg" viewBox="0 0 202.17 202.17"><g data-name="レイヤー 2"><g data-name="レイヤー 1"><path d="M39.58 109.4c-4 1-8.92-3.44-9-10.41a.31.31 0 0 0-.09-.22.21.21 0 0 0-.2 0l-1.54.37a.27.27 0 0 0-.19.29L29 115a.29.29 0 0 0 .1.22.24.24 0 0 0 .14 0h.08l1-.36a.27.27 0 0 0 .17-.28l-.11-3.43c0-.48 0-1-.07-1.44a2.55 2.55 0 0 0 .37.48 10.82 10.82 0 0 0 7 2.53 7.56 7.56 0 0 0 1.95-.23 15 15 0 0 0 11.61-14.34c0-6.7-4.69-10.17-9.23-13.53-4.17-3.09-8.1-6-8.1-11.18 0-3.6 2.19-5.89 5.73-6h.14c4.35 0 7 4.58 7.24 8.89l.06 1.3a.27.27 0 0 0 .09.21.21.21 0 0 0 .18.06l1.48-.21a.29.29 0 0 0 .22-.3l-.42-12.88a.26.26 0 0 0-.24-.27h-1.07a.21.21 0 0 0-.17.09.29.29 0 0 0-.07.2l.06 2.14c0 .44 0 .91.06 1.34a4.05 4.05 0 0 0-.53-.77 9.47 9.47 0 0 0-6.93-2.92h-.11c-5.55.11-9.63 4.9-9.63 11.44 0 8.15 5.25 12 9.88 15.41 3.68 2.71 6.86 5 6.86 9a9 9 0 0 1-7.16 9.23zm1.12-21.29c-4.05-3-8.23-6.12-8.55-11.75 1.08 5.34 5.19 8.37 9.19 11.32s7.87 5.8 7.87 10.77a9.92 9.92 0 0 1-.44 2.91v-2.48a5.31 5.31 0 0 0-.15-1.41c-.92-4.16-4.32-6.68-7.92-9.36zM57 72.16v20.18c0 4 .81 7.4 2.32 9.73a7.29 7.29 0 0 0 6.29 3.57 9.72 9.72 0 0 0 2.34-.31c6.13-1.56 10.25-8.17 10.25-16.46V71c0-3.58.15-3.8 2.77-3.88h1.13a.27.27 0 0 0 .24-.28v-1.38a.3.3 0 0 0-.08-.2.21.21 0 0 0-.17-.08l-10.35.2a.27.27 0 0 0-.24.29v1.46a.31.31 0 0 0 .07.21.23.23 0 0 0 .18.08h1.53c2.58-.08 2.89.1 2.89 3.73v18c0 7-3.27 12.25-8.32 13.47a6.29 6.29 0 0 1-1.43.18c-4 0-4.78-4.83-4.78-8.88v-22c0-4 .32-4.23 2.89-4.3h1.54a.27.27 0 0 0 .24-.28v-1.56a.35.35 0 0 0-.07-.2s-.13-.1-.18-.08l-13 .25a.27.27 0 0 0-.24.29v1.63a.27.27 0 0 0 .07.2.23.23 0 0 0 .18.09h1.57c2.1-.04 2.36.35 2.36 4.2zm2.85-3.61a26.1 26.1 0 0 0-.29 3.45v22.18a27.54 27.54 0 0 0 .17 3.31 18.72 18.72 0 0 1-.73-5.41v-20a28.38 28.38 0 0 0-.25-3.49zm37.93 27.79v-1.16a.28.28 0 0 0-.09-.22.19.19 0 0 0-.2-.06l-1.49.36a7.72 7.72 0 0 1-1.67.27c-.92 0-1.17-.37-1.17-3v-5.92l6-1c7.56-1.27 12.63-5.91 12.63-11.55s-5.11-9.41-12.67-9.22l-15 .3a.26.26 0 0 0-.24.28v1.36a.29.29 0 0 0 .07.2.21.21 0 0 0 .18.08h2.17c2 0 2.25.32 2.25 3.43v23c0 3.33-.24 3.69-2.88 4.32l-1.6.37a.29.29 0 0 0-.19.29v1.27a.32.32 0 0 0 .09.23.22.22 0 0 0 .15.06l13.49-3.32a.27.27 0 0 0 .17-.37zm11.93-22.14a6.93 6.93 0 0 1-1.49 4.26 12.42 12.42 0 0 0 .68-4.13 11.14 11.14 0 0 0-.73-4.14 5.79 5.79 0 0 1 1.54 4.01zM90.34 95.94a22.6 22.6 0 0 0 .17-2.86V70.35c0-.38 0-1-.06-1.73a5.11 5.11 0 0 1 .63 2.32v21.91a18.52 18.52 0 0 0 .25 2.86zm8.51-28.69c5.29-.17 8 2.27 8 7.23s-2.77 8-8 8.77l-5.7.88V70.85a6.15 6.15 0 0 0-.78-3.38zm39.2 19.27l-.12 1.76a.27.27 0 0 0 .08.23.19.19 0 0 0 .21.07l1-.22a.26.26 0 0 0 .2-.25l.71-8.36a.3.3 0 0 0-.08-.24.22.22 0 0 0-.2-.08l-1.07.2a.26.26 0 0 0-.2.25c-.34 4.32-1.91 5.29-7.55 6.6l-9 2.08a5 5 0 0 0 1-2.84v-7.59l2.86-.39a7.62 7.62 0 0 1 1.11-.1c1.43 0 1.69.68 1.69 4.53a.35.35 0 0 0 .08.22.22.22 0 0 0 .2.06l1.07-.19a.29.29 0 0 0 .2-.29V70.49a.31.31 0 0 0-.07-.21.24.24 0 0 0-.19-.08l-1.06.09a.27.27 0 0 0-.23.28c0 4.53-.36 4.87-2.86 5.18l-2.8.35v-7a4 4 0 0 0-1-2.6l6.42-.21h1.66c4.4 0 5.54.93 5.83 4.7 0 .16.11.28.27.26l1.06-.09a.23.23 0 0 0 .17-.1.32.32 0 0 0 .06-.21l-.71-8.4a.26.26 0 0 0-.26-.26h-1a.24.24 0 0 0-.18.1.37.37 0 0 0-.06.21l.14 1.83a2.1 2.1 0 0 0-1-.18l-20.44.4a.28.28 0 0 0-.25.29v1.09a.3.3 0 0 0 .08.2.2.2 0 0 0 .18.08h1.59c2.63-.07 2.83.08 2.83 2.64v18.24c0 2.53-.16 2.89-2.88 3.53l-1.6.38a.29.29 0 0 0-.2.28v1a.32.32 0 0 0 .1.22.2.2 0 0 0 .15.06L136.86 87a3.24 3.24 0 0 0 1.19-.48zM121 86a2.8 2.8 0 0 1-.59 1.65V67.74a2 2 0 0 1 .59 1.41zm49.59-17.75c0-2.82-4.87-4.57-12.71-4.57h-1l-14 .28a.26.26 0 0 0-.24.29v.83a.29.29 0 0 0 .07.2.22.22 0 0 0 .18.08h2.4c2 0 2 .3 2 1.91V81c0 1.84-.16 2.12-2.88 2.76l-1.6.38a.29.29 0 0 0-.19.28v.78a.32.32 0 0 0 .09.23.22.22 0 0 0 .15.06l13-3.18a.29.29 0 0 0 .19-.29v-.67a.28.28 0 0 0-.09-.22.2.2 0 0 0-.2-.06l-1 .24a10.43 10.43 0 0 1-2 .34c-.66 0-.84-.19-.84-1.53V67.37a2.82 2.82 0 0 0-.6-1.87l6-.2h1c3.22 0 7.06.58 7.06 3.38 0 2.19-2.87 3.8-8.07 4.53l-4.14.59a.27.27 0 0 0-.21.28v1.07a.3.3 0 0 0 .08.21.21.21 0 0 0 .2.07l2.6-.4c2.5-.39 3.72.37 5.63 1.86L163 78c1.54 1.1 2.7 1.74 4.08 1.74a6.55 6.55 0 0 0 1.54-.22 38.28 38.28 0 0 0 4.29-1.54l.59-.24a.3.3 0 0 0 .16-.34l-.12-.5a.29.29 0 0 0-.12-.18.25.25 0 0 0-.19 0l-1.45.5-.48.11c-1.28.3-1.92-.11-3.91-1.39l-.94-.63a9.85 9.85 0 0 0-3.86-1.51c4.77-1.27 8-3.45 8-5.55zm-21.37 14a9 9 0 0 0 .14-1.58V66.92a5.89 5.89 0 0 0 0-.61l.09.07a1.29 1.29 0 0 1 .47 1.08v13a6.14 6.14 0 0 0 .22 1.58zM165 76.5l.9.66.34.21c.55.35.95.61 1.28.8a6.42 6.42 0 0 1-2.91-1.47l-1.47-1.06-.12-.1a6.83 6.83 0 0 1 1.98.96zm2-6.15a3.66 3.66 0 0 0 .5-1.82 3.6 3.6 0 0 0-.5-1.89c.86.41 1.6 1 1.6 1.75-.04.61-.6 1.3-1.6 1.96zM27.5 137.42h-1.59a.27.27 0 0 0-.24.29v.59a.31.31 0 0 0 .07.21.25.25 0 0 0 .17.08l13.95-.24c8.53-.14 14.26-4.58 14.26-11 0-5.21-3.8-8.45-9.92-8.45a21.56 21.56 0 0 0-4.38.48l-14 2.86a.28.28 0 0 0-.2.28v.63a.35.35 0 0 0 .08.22.22.22 0 0 0 .2.06l1.6-.31a12.21 12.21 0 0 1 2-.29c.69 0 .8.18.8 1.31v11.56c.04 1.39.04 1.65-2.8 1.72zm24.55-9.91a8.13 8.13 0 0 1-1.77 5.18 12.6 12.6 0 0 0 1-5 10.78 10.78 0 0 0-1.05-5 6.53 6.53 0 0 1 1.82 4.82zm-12.37-6.44a15.09 15.09 0 0 1 2.94-.31c4.37 0 6.59 2.37 6.59 7.07 0 5.67-3.32 8.76-9.58 8.93l-5.21.15a2.16 2.16 0 0 0 .55-1.57v-11.76a1.88 1.88 0 0 0-.56-1.5zm-6.74 2.78v11.56a1.62 1.62 0 0 1-.62 1.24 7 7 0 0 0 0-1v-11.8a5 5 0 0 0-.1-1.2 1.14 1.14 0 0 1 .72 1.2zm29.84 12.57a12.17 12.17 0 0 0 7.73 2.35h.18c6.16-.06 10.3-4.24 10.3-10.39v-13.1c0-2.48.09-2.77 2.81-3.3l1.12-.23a.27.27 0 0 0 .21-.28v-1.06a.32.32 0 0 0-.09-.22.24.24 0 0 0-.2-.07l-10.35 2.13a.27.27 0 0 0-.21.28v1a.36.36 0 0 0 .09.22.22.22 0 0 0 .2.06l1.54-.3a9.68 9.68 0 0 1 1.75-.24c.88 0 1.1.27 1.1 2.29v13c0 4.93-3.25 8.19-8.28 8.3h-.24c-2.75 0-6-1-6-5.76v-12.9c0-2.12.16-2.43 2.93-3l1.53-.31a.27.27 0 0 0 .21-.28v-.94a.28.28 0 0 0-.09-.22.2.2 0 0 0-.2-.07l-13 2.66a.27.27 0 0 0-.21.28v.85a.32.32 0 0 0 .09.22.22.22 0 0 0 .2.06l1.06-.21a10.78 10.78 0 0 1 1.82-.25c.83 0 1 .28 1 1.91v11.15a7.85 7.85 0 0 0 3 6.37zm-.18-19.8a9 9 0 0 0-.2 1.85v12.69a9.81 9.81 0 0 0 .14 1.78 6.52 6.52 0 0 1-.66-3v-11.3a9.24 9.24 0 0 0-.22-1.85zm39.33 10.31c7.57-.62 12.65-5.41 12.65-11.93 0-5.4-3.53-8.75-9.2-8.75a17.58 17.58 0 0 0-3.51.38l-15 3.08a.28.28 0 0 0-.2.28v1.08a.31.31 0 0 0 .08.22.23.23 0 0 0 .2.07l1.6-.32a9.43 9.43 0 0 1 1.68-.23c.88 0 1.11.25 1.11 2.56v19.51c0 2.78-.21 3-2.84 3.07h-1.59a.26.26 0 0 0-.24.29v1a.27.27 0 0 0 .07.2.2.2 0 0 0 .17.08l13.49-.22a.28.28 0 0 0 .24-.29V136a.35.35 0 0 0-.07-.2.25.25 0 0 0-.17-.08h-1.54c-2.57.07-2.88-.1-2.88-3v-5.27zm10.62-11.71A8.26 8.26 0 0 1 111 120a14.75 14.75 0 0 0 .71-4.64 12.77 12.77 0 0 0-.78-4.63 6.38 6.38 0 0 1 1.62 4.49zm-19.37 20.06a16.73 16.73 0 0 0 .17-2.47V113.1c0-.34 0-.92-.06-1.54a3.5 3.5 0 0 1 .63 1.92v19.28a15.38 15.38 0 0 0 .23 2.49zm2-25l6.54-1.27a11.76 11.76 0 0 1 2.26-.24c3.76 0 5.67 2.3 5.67 6.84 0 5.38-2.76 8.48-8 9l-5.71.53v-11.93a4.61 4.61 0 0 0-.76-2.91zM141 140l1 .08a.23.23 0 0 0 .17-.07.27.27 0 0 0 .08-.19l.71-14.3a.34.34 0 0 0-.07-.22.22.22 0 0 0-.19-.08l-1.07.07a.28.28 0 0 0-.23.28c-.35 7.73-2.23 8.47-7.5 8.62l-9.16.25a6.66 6.66 0 0 0 1.13-3.77v-10.42l2.85-.31a7.23 7.23 0 0 1 .77 0c1.75 0 2 1 2 7a.3.3 0 0 0 .07.21.27.27 0 0 0 .19.08l1.06-.08a.26.26 0 0 0 .23-.28v-17.3a.3.3 0 0 0-.08-.21.24.24 0 0 0-.2-.07l-1.06.17a.27.27 0 0 0-.21.28c0 6.79-.4 7.33-2.86 7.62l-2.8.34v-9.65a5.61 5.61 0 0 0-1.1-3.49l6.57-1.28a18.12 18.12 0 0 1 3.32-.42c2.58 0 3.86 1.08 4.14 7.22a.34.34 0 0 0 .09.2.26.26 0 0 0 .19.07l1.06-.16a.3.3 0 0 0 .22-.31l-.71-13.95a.32.32 0 0 0-.1-.21.23.23 0 0 0-.21 0l-1 .31a.28.28 0 0 0-.19.29l.15 3.22c-.28-.18-.58-.22-1.31-.07l-20.22 4.15a.29.29 0 0 0-.21.28v1.31a.31.31 0 0 0 .09.22.22.22 0 0 0 .2.06l1.6-.32a9.19 9.19 0 0 1 1.56-.21c1 0 1.22.48 1.22 3.19v23.41c0 3.38-.21 3.66-2.83 3.73h-1.6a.28.28 0 0 0-.24.29v1.23a.28.28 0 0 0 .08.2.2.2 0 0 0 .17.09l22.83-.39a1.89 1.89 0 0 0 1.26-.32l-.15 3.29a.28.28 0 0 0 .29.32zm-17.14-9.25a3.81 3.81 0 0 1-.59 2.08v-26.38a2.87 2.87 0 0 1 .6 1.87zm36.35-13.95l-4.14.43a.26.26 0 0 0-.22.28v2.31a.38.38 0 0 0 .07.21.25.25 0 0 0 .19.07l2.6-.24c2.45-.23 3.58 1.78 5.56 6.3l1.48 3.43c2.15 5.23 3.4 7.42 5.62 7.42 1.27 0 3-.87 4.82-1.78l.13-.06a.28.28 0 0 0 .14-.28l-.11-1.65a.31.31 0 0 0-.11-.21.23.23 0 0 0-.21 0l-1.45.51h-.47c-1.16 0-1.91-1.79-3.73-6.12l-1-2.43c-1.32-3-3.35-5.48-5-6 5.26-1.39 9.05-6.92 9.05-13.24 0-7-4-11.27-10.43-11.27a17.09 17.09 0 0 0-3.34.35l-14 2.87a.27.27 0 0 0-.2.28v1.52a.35.35 0 0 0 .08.22.22.22 0 0 0 .2.06l1.6-.32a8.43 8.43 0 0 1 1.47-.19c1.12 0 1.32.57 1.32 3.79v27.18c0 3.93-.24 4.3-2.84 4.36h-1.59a.26.26 0 0 0-.24.29v1.43a.27.27 0 0 0 .07.2.22.22 0 0 0 .17.09l12.95-.22a.28.28 0 0 0 .24-.29v-1.52a.35.35 0 0 0-.07-.21.25.25 0 0 0-.18-.08h-1c-2.57.07-2.88-.26-2.88-4.3v-26.93a8.06 8.06 0 0 0-.76-4.16l6.32-1.23a9.92 9.92 0 0 1 1.89-.19c4.05 0 6.11 3 6.11 8.9-.05 6.27-2.84 9.87-8.11 10.42zm11.16 19.92zm-3.67-10l.89 2.21.64 1.48c.77 1.77 1.21 2.77 1.61 3.51-.81-.3-1.58-1.59-3.35-5.92l-1.49-3.47-.21-.5c-.15-.36-.29-.72-.44-1.06a12.58 12.58 0 0 1 2.35 3.72zm1.85-26.51a8.91 8.91 0 0 1 1.85 5.73 11.21 11.21 0 0 1-1.9 6.12 20.84 20.84 0 0 0 .8-5.88 20.29 20.29 0 0 0-.75-6zM152 133.65a29.67 29.67 0 0 0 .19-3.54v-29.34l.05.07a4.8 4.8 0 0 1 .53 2.49v26.73a28.53 28.53 0 0 0 .25 3.56zm-22.92 42.74c.82.05 1.66.08 2.49.08 10.07 0 19.42-3.79 20.42-8.29v-.33a3.55 3.55 0 0 0-.95-2.87c-2-2.31-7.11-3.7-13.56-3.7a47.83 47.83 0 0 0-5.68.35c-1.68.21-3.44.51-5.36.93a41.2 41.2 0 0 0-11.84-6.28 151.74 151.74 0 0 1 27.87-2.94 87.35 87.35 0 0 1 16.07 1.39h.06a.26.26 0 0 0 .25-.26.25.25 0 0 0-.18-.25 26 26 0 0 0-2.64-1.2 46.14 46.14 0 0 0-14-1.93c-8.76 0-18.36 1.7-30.08 4.26a84.93 84.93 0 0 0-19.18-3.72c-2.72-.19-5.41-.29-8-.29-8.59 0-15.88 1-21.09 3a59 59 0 0 0-15.26-2.08c-5.66 0-9.24 1.07-10.06 3a2.32 2.32 0 0 0 .2 2.14c1.85 3.23 10.32 6.13 17.51 7.1 2 5.49 11.78 9.66 22.9 9.74h.4c10 0 17.12-1.86 24.11-3.93a107.6 107.6 0 0 0 23.29 5.86l.88.1c-4 3.61-12.89 5.75-24 5.75a90.57 90.57 0 0 1-12.27-.84 79 79 0 0 1-10.93-2.24.26.26 0 0 0-.25.06.29.29 0 0 0-.08.23c0 .15.35 1.42 3.78 2.47a63.34 63.34 0 0 0 18.1 2.57c12 0 22.57-3.09 27.08-7.88zm2.8-2.22h-1.22a6 6 0 0 0 .57-1.74c.5-2.86-.51-5.63-3-8.24 1.18-.18 2.5-.36 4.22-.56a53.29 53.29 0 0 1 6.22-.37c5.88 0 10.32 1.05 11.86 2.81a2 2 0 0 1 .55 1.64 2.1 2.1 0 0 1-.06.31c-.8 2.98-7.78 6.15-19.14 6.15zM127 174a110.25 110.25 0 0 1-21-4.41l.5-.15a146.5 146.5 0 0 1 20.19-5c2.57 2.48 3.66 5.13 3.23 7.87a5.48 5.48 0 0 1-.61 1.83c-.63-.06-1.38-.14-2.31-.14zm-66.28-11.3c-1.25 0-2.61-.15-4.07-.31.17-2.36 2.61-4.57 6.87-6.24a136 136 0 0 1 17.29 5.41 114.67 114.67 0 0 1-20.05 1.09zm46.38-6.22c-7.78 1.73-15.83 3.51-24 4.74-6-2.38-11.49-4.49-16.72-6.06a67.33 67.33 0 0 1 18.41-2.23c2.53 0 5.15.1 7.81.3a90.87 90.87 0 0 1 16.71 2.77zm-46.68 8.42h1.73a120.81 120.81 0 0 0 21.5-2.29c2.14.84 4.27 1.7 6.4 2.55 3.67 1.47 7.45 3 11.25 4.39A83.87 83.87 0 0 1 81.66 172h-2.34c-10.63-.33-19.74-3.36-22.06-7.28 1.06.03 2.13.1 3.2.13zm64.58-1.99c-3.51.83-7 1.9-10.79 3-3.28 1-6.67 2-10.24 2.94-6.36-2-12.61-4.48-18.19-6.68 4.51-.85 9-1.82 13.76-2.83 4.1-.88 8.34-1.79 12.56-2.62a42.86 42.86 0 0 1 12.9 6.19zm-78.06-9a60.1 60.1 0 0 1 7.77.55c2.08.27 4.21.64 6.33 1.08-3.38 1.8-5.21 4.09-5.31 6.67-8-1-14.91-3.39-16.24-5.58a1.32 1.32 0 0 1-.16-1.19c.27-.7 2.42-1.54 7.61-1.54zm-.57-119.54v.34a3.61 3.61 0 0 0 1 2.93c2.11 2.39 7.37 3.82 14.07 3.82a50.22 50.22 0 0 0 5.83-.35c1.74-.22 3.55-.53 5.54-1A42.76 42.76 0 0 0 85 46.63a158 158 0 0 1-28.73 3 92.42 92.42 0 0 1-16.71-1.45.26.26 0 0 0-.17.48c.09 0 2 1 2.76 1.26a48.28 48.28 0 0 0 14.56 2c9 0 19-1.73 31-4.34a88.46 88.46 0 0 0 19.83 3.84c2.85.2 5.67.3 8.38.3 8.83 0 16.32-1.05 21.68-3.05a61.18 61.18 0 0 0 8.45 1.67 62.06 62.06 0 0 0 7.37.48c5.83 0 9.5-1.09 10.35-3.06a2.37 2.37 0 0 0-.2-2.18c-1.9-3.32-10.67-6.32-18.12-7.32-2.05-5.64-12.17-9.93-23.67-10h-.49c-10.3 0-17.63 1.89-24.83 4a112.15 112.15 0 0 0-24.09-6.05l-.92-.1c4.1-3.7 13.27-5.89 24.76-5.89a95.07 95.07 0 0 1 12.78.87 81 81 0 0 1 11.29 2.32h.08a.26.26 0 0 0 .26-.26.32.32 0 0 0 0-.14c-.12-.34-.74-1.48-3.88-2.44a65.87 65.87 0 0 0-18.78-2.65C85.61 17.91 74.68 21.07 70 26c-.86-.06-1.74-.08-2.62-.08-10.38-.03-19.99 3.84-21.01 8.45zm22.71-4.21a5.43 5.43 0 0 1 .63-1.87c.73 0 1.49.09 2.43.17A114.51 114.51 0 0 1 93.83 33l-.53.16a154.2 154.2 0 0 1-20.88 5.09c-2.66-2.54-3.79-5.25-3.34-8.09zm-2-1.93h1.33a6.46 6.46 0 0 0-.6 1.8c-.51 2.94.54 5.78 3.12 8.46-1.22.19-2.6.37-4.38.58a56 56 0 0 1-6.38.37c-6.12 0-10.73-1.08-12.33-2.9a2.13 2.13 0 0 1-.57-1.68c0-.1 0-.21.07-.33.83-3.05 8.03-6.3 19.74-6.3zm69.8 11.83c1.27 0 2.54 0 3.78.07s2.71.16 4.21.33c-.17 2.42-2.69 4.69-7.1 6.4a141.74 141.74 0 0 1-17.9-5.58 127 127 0 0 1 17.01-1.22zm-44.14 6.41c8-1.77 16.35-3.59 24.77-4.84 6.24 2.45 11.89 4.63 17.31 6.25a69.84 69.84 0 0 1-18.95 2.27c-2.64 0-5.39-.1-8.17-.31A94.32 94.32 0 0 1 90.46 47zM141 37.89h-1.87a126.37 126.37 0 0 0-22.13 2.3c-2.22-.86-4.46-1.76-6.63-2.62-3.79-1.52-7.71-3.08-11.65-4.53A87.53 87.53 0 0 1 119 30.56h2.49c11 .35 20.43 3.48 22.83 7.51-1.13-.07-2.24-.15-3.32-.18zm-66.75 1.92c3.62-.85 7.28-2 11.15-3.11 3.39-1 6.9-2.07 10.59-3 6.59 2.11 13.06 4.62 18.84 6.89-4.67.87-9.33 1.86-14.25 2.9-4.24.9-8.62 1.83-13 2.67a44.37 44.37 0 0 1-13.33-6.35zM155 49.15a63.36 63.36 0 0 1-8.08-.57c-2.17-.29-4.37-.67-6.57-1.13 3.55-1.86 5.39-4.15 5.49-6.84 8.25 1 15.45 3.51 16.82 5.76a1.32 1.32 0 0 1 .16 1.22c-.27.7-2.49 1.56-7.82 1.56zM62.25 22.68a3.77 3.77 0 0 0 2.86-.26A6.73 6.73 0 0 0 67.18 21l-1-2.06.09-.19.55-.31-.24-.52-3.13 1.45.24.52.73-.29.21.05.85 1.82-.15.07a2.32 2.32 0 0 1-1.94.09A2.78 2.78 0 0 1 62 20.07a3 3 0 0 1-.28-2.07 2.27 2.27 0 0 1 1.33-1.41l.22-.08.33-.09.24.07.71 1 .83-.38-.77-1.65c-.44.08-.85.17-1.24.28a8.61 8.61 0 0 0-1.08.4 4 4 0 0 0-2.13 2 3.23 3.23 0 0 0 .1 2.71 3.27 3.27 0 0 0 1.99 1.83zm6.4-8.5l.16.1 1 3a7 7 0 0 0 .45 1.09 2.15 2.15 0 0 0 .47.52 2.05 2.05 0 0 0 1.15.43 3.82 3.82 0 0 0 1.49-.23 3 3 0 0 0 1.83-1.31 2.89 2.89 0 0 0 0-2.22l-1.07-3.13.07-.17.59-.25-.19-.55-2.37.82.18.54.69-.19.16.1 1 3a2.54 2.54 0 0 1 .19 1.52 1.29 1.29 0 0 1-.9.74 1.5 1.5 0 0 1-1.22 0 2 2 0 0 1-.76-1.14l-1.09-3.19.07-.18.6-.24-.15-.5-3.19 1.09.19.55zm11.77 2.72l-.13-.56-.64.08-.12-.1.15-1.55 2.07-.48.85 1.32v.15l-.65.2.14.56 3.14-.73-.13-.57-.61.07-3.69-5.4-1.4.33-.83 6.48-.62.19.13.56zM80 11.74l1.29 2-1.55.37zm6.83-2.37l.18.12.66 5.08-.14.21-.62.12.07.57L90.3 15l-.07-.57h-.66l-.18-.16-.27-2.09h.1a1.24 1.24 0 0 1 .79.12 1.56 1.56 0 0 1 .56.69c.05.1.12.25.2.45a2.64 2.64 0 0 0 .57.94 1.46 1.46 0 0 0 .64.3 2.44 2.44 0 0 0 .86 0l.6-.09c.22 0 .47-.08.73-.14L94.1 14H94a1.47 1.47 0 0 1-.76-.05 1.26 1.26 0 0 1-.5-.54l-.15-.29a3 3 0 0 0-.9-1.12 1.38 1.38 0 0 0-.44-.21 2.07 2.07 0 0 0-.58-.1A2.61 2.61 0 0 0 92 10.9a1.48 1.48 0 0 0 .32-1.19 1.41 1.41 0 0 0-.76-1.15 3 3 0 0 0-1.8-.19l-3.63.47.08.57zm2.35-.25a1.23 1.23 0 0 1 .91.2 1.17 1.17 0 0 1 .44.82 1.21 1.21 0 0 1-.24 1 1.57 1.57 0 0 1-1 .46H89l-.32-2.42zm8.68 5.26v-.57l-.64-.06-.11-.11.46-1.49 2.12-.06.57 1.47-.07.13-.68.07v.58l3.23-.09v-.58l-.61-.06-2.49-6h-1.43l-2.11 6.18-.65.06v.58zm.65-5.13l.86 2.18h-1.59zm8.53 4.66l-.66-.11-.13-.19.32-4.27 2.91 5.32 1.58.12.44-5.87.2-.18.6-.04.04-.53-2.52-.19-.04.53.64.14.16.2-.28 3.89-2.53-4.64.02-.27-2.8-.21-.05.58.67.09.12.15-.38 5.11-.21.17-.61.02-.04.56 2.51.18.04-.56zm8.86-4.42l.19-.09.95.17-.9 5.13-.22.15-.66-.08-.1.58 3.44.6.1-.57-.64-.15-.16-.22.9-5.13.93.16.16.15v1.22l.82.15.35-1.97-6.04-1.06-.35 1.97.83.14.4-1.15zm12.15 6.81l-.8-.22-.47 1.02-.17.12-2.01-.55.63-2.32 1.01.27.11.18-.09.72.68.18.64-2.36-.68-.19-.29.67-.17.09-1.02-.27.59-2.14 1.71.47.11.14-.08.9.81.22.44-1.6-5.29-1.45-.15.56.63.22.12.18-1.35 4.94-.21.14-.65-.14-.15.56 5.59 1.52.51-1.86zm7.88 2.81l-.77-.29-.56.97-.18.1-1.95-.73.84-2.25.98.37.09.18-.16.71.66.24.86-2.29-.66-.24-.35.63-.18.08-.98-.37.77-2.07 1.66.62.09.15-.15.89.79.3.58-1.56-5.14-1.93-.2.55.61.27.1.19-1.79 4.79-.22.12-.64-.19-.2.54 5.42 2.03.68-1.81zm7.47 4.67a3.21 3.21 0 0 0 1.95-1.78 3.13 3.13 0 0 0 .22-2.63 3.83 3.83 0 0 0-2-2l-3.13-1.54-.25.52.58.33.06.24-2.24 4.55-.23.1-.61-.26-.26.52 3.12 1.54a3.91 3.91 0 0 0 2.79.41zm-3.31-1.4l2.37-4.81.36.18a1.93 1.93 0 0 1 1.14 1.3 3.2 3.2 0 0 1-.42 2 3.31 3.31 0 0 1-1.36 1.58 1.92 1.92 0 0 1-1.72-.11z"/><path d="M149.76 24.93a1.08 1.08 0 0 0-1.15 1.83 89.15 89.15 0 0 1-23.19 161.17 1.07 1.07 0 0 0 .29 2.11 1 1 0 0 0 .3 0 91.31 91.31 0 0 0 23.75-165.11zM80.47 188.89a89.54 89.54 0 0 1-49-31A88.18 88.18 0 0 1 12 102.16a89.45 89.45 0 0 1 44.61-77.25A1.08 1.08 0 0 0 55.54 23 91.62 91.62 0 0 0 9.8 102.16a90.3 90.3 0 0 0 20 57A91.66 91.66 0 0 0 80 191h.25a1.08 1.08 0 0 0 .25-2.13zm6.53-.45a2 2 0 0 0-1.54.26 2 2 0 0 0-.49 2.73 2.1 2.1 0 0 0 1.35.75 3.75 3.75 0 0 0 .94.06 4.05 4.05 0 0 0 .9-.16l.11-.67a3 3 0 0 1-.75.17 2.3 2.3 0 0 1-.74 0 1 1 0 0 1-.7-.44 1.31 1.31 0 0 1-.15-.9l2.5.44v-.1a1.86 1.86 0 0 0-.23-1.41 1.75 1.75 0 0 0-1.2-.73zm.22 1.53l-1.22-.21a1.3 1.3 0 0 1 .29-.68.55.55 0 0 1 .51-.16.46.46 0 0 1 .37.31 1.49 1.49 0 0 1 .02.77zm4.05-.31a.7.7 0 0 1 .42-.06 1.14 1.14 0 0 1 .25.06 1.66 1.66 0 0 1 .27.13l.09.11v.59l.52.06.13-1.12c-.28-.1-.53-.17-.76-.23a4.19 4.19 0 0 0-.62-.12 2 2 0 0 0-1.21.19 1 1 0 0 0-.55.77.86.86 0 0 0 .18.62 3.92 3.92 0 0 0 1 .71l.17.1c.32.18.47.36.45.55a.35.35 0 0 1-.18.29.65.65 0 0 1-.41.07 1.75 1.75 0 0 1-.38-.09 1.51 1.51 0 0 1-.36-.18l-.08-.1v-.68l-.53-.06-.13 1.22a7.4 7.4 0 0 0 .8.26 5.37 5.37 0 0 0 .73.13 2.12 2.12 0 0 0 1.25-.21 1 1 0 0 0 .57-.8.81.81 0 0 0-.14-.6 2.24 2.24 0 0 0-.73-.55l-.32-.17q-.63-.31-.6-.63a.37.37 0 0 1 .17-.26zm4.73-1.04h-.65l-.52.82-.66.35v.34h.53l-.13 1.9a4.53 4.53 0 0 0 0 .53.62.62 0 0 0 .08.27.89.89 0 0 0 .33.27 1.59 1.59 0 0 0 .51.13 3.56 3.56 0 0 0 .62 0 6.08 6.08 0 0 0 .74-.18v-.42h-.41a.88.88 0 0 1-.55-.17.71.71 0 0 1-.12-.52l.11-1.71 1.12.07v-.54l-1.11-.07zm2.9 3.38a.67.67 0 0 0-.49.19.72.72 0 0 0-.22.5.67.67 0 0 0 .19.49.7.7 0 0 0 .49.22.71.71 0 0 0 .5-.19.68.68 0 0 0 .22-.48.7.7 0 0 0-.69-.73zm5.66-.28l-.11.67h-2a7.57 7.57 0 0 0 1.92-1.36 1.89 1.89 0 0 0 .6-1.33 1.31 1.31 0 0 0-.53-1.07 2.15 2.15 0 0 0-1.38-.36 2.36 2.36 0 0 0-1.34.37 1 1 0 0 0-.49.9.55.55 0 0 0 .19.44.7.7 0 0 0 .49.15 1.45 1.45 0 0 0 .28 0 2 2 0 0 0 .33-.13v-1.11h.15a1 1 0 0 1 .71.24 1 1 0 0 1 .27.7 2.09 2.09 0 0 1-.51 1.26 10.48 10.48 0 0 1-1.78 1.59v.71l3.86-.09v-1.58zm5.44-3.14a1.89 1.89 0 0 0-1.58-.55 1.78 1.78 0 0 0-1.44.81 2.86 2.86 0 0 0-.39 1.91 2.9 2.9 0 0 0 .7 1.82 1.83 1.83 0 0 0 1.56.55 1.87 1.87 0 0 0 1.47-.81 2.94 2.94 0 0 0 .4-1.91 2.89 2.89 0 0 0-.72-1.82zm-.67 3.51q-.14.51-.51.54c-.25 0-.45-.12-.59-.44a5 5 0 0 1-.31-1.56 5 5 0 0 1 0-1.57c.09-.35.26-.53.51-.56s.45.13.59.45a4.94 4.94 0 0 1 .31 1.55 4.85 4.85 0 0 1 .03 1.59zm6.01-.3l-.09-.1-.65-4.37-.75.11-1.57.82.06.44 1.02-.29.11.07.5 3.38-.07.14-.84.17.07.42 3.08-.46-.06-.41-.81.08zm5.48-3.4a2 2 0 0 0-1.35-.13 2.54 2.54 0 0 0-.49.16 3.71 3.71 0 0 0-.52.27l-.21-1 2.47-.53-.2-.93-3.19.68.55 2.6a3.23 3.23 0 0 1 .5-.24 2.21 2.21 0 0 1 .48-.15 1.42 1.42 0 0 1 1 .08.85.85 0 0 1 .49.63 1 1 0 0 1-.14.79 1 1 0 0 1-.69.44h-.16l-.43-1a1.17 1.17 0 0 0-.26 0 .75.75 0 0 0-.21 0 .7.7 0 0 0-.45.29.64.64 0 0 0-.09.51.79.79 0 0 0 .58.59 2.21 2.21 0 0 0 1.21 0 2.72 2.72 0 0 0 1.55-.82 1.57 1.57 0 0 0 .34-1.4 1.35 1.35 0 0 0-.78-.84z"/><path d="M101.09 0a101.09 101.09 0 1 0 101.08 101.09A101.21 101.21 0 0 0 101.09 0zm0 197.86a96.78 96.78 0 1 1 96.77-96.77 96.88 96.88 0 0 1-96.77 96.77z"/></g></g></svg>