<svg xmlns="http://www.w3.org/2000/svg" viewBox="0 0 64.1 14.88"><g data-name="レイヤー 2"><path d="M9 14.52L3.3 5.26h-.06l.08 9.26H0V.36h3.9L9.58 9.6h.06L9.56.36h3.32v14.16zm8.8 0V.36h9.52v2.88H21.1v2.68H27v2.74h-5.9v2.94h6.58v2.92zm29.14 0h-3.38l-2.8-9.58h-.06l-2.8 9.58h-3.4L30.48.36h3.68l2.24 9.42h.06L39 .36h3.56l2.54 9.42h.06L47.42.36H51zM61.92 4a3.12 3.12 0 0 0-1.15-.89 3.23 3.23 0 0 0-1.37-.33 4 4 0 0 0-.69.06 1.9 1.9 0 0 0-.63.23 1.52 1.52 0 0 0-.47.44 1.15 1.15 0 0 0-.19.69 1.11 1.11 0 0 0 .15.6 1.37 1.37 0 0 0 .44.42 3.71 3.71 0 0 0 .69.33l.9.31 1.5.53a5.56 5.56 0 0 1 1.42.77 4 4 0 0 1 1.06 1.19 3.41 3.41 0 0 1 .42 1.81 4.62 4.62 0 0 1-.45 2.11 4.23 4.23 0 0 1-1.21 1.47 5.25 5.25 0 0 1-1.74.86 7.19 7.19 0 0 1-2 .28 8.44 8.44 0 0 1-2.94-.53 6.23 6.23 0 0 1-2.36-1.51l2.24-2.28a4.14 4.14 0 0 0 1.37 1.07 3.69 3.69 0 0 0 1.69.43 3.65 3.65 0 0 0 .74-.08 1.78 1.78 0 0 0 .63-.26 1.33 1.33 0 0 0 .43-.48 1.47 1.47 0 0 0 .16-.72 1.16 1.16 0 0 0-.2-.68 1.79 1.79 0 0 0-.57-.51 5 5 0 0 0-.92-.42L57.6 8.5a12.63 12.63 0 0 1-1.33-.5 4.6 4.6 0 0 1-1.16-.77 3.54 3.54 0 0 1-.82-1.14A3.82 3.82 0 0 1 54 4.44a4 4 0 0 1 .48-2A4.17 4.17 0 0 1 55.72 1a5.52 5.52 0 0 1 1.76-.75 7.79 7.79 0 0 1 2-.25 7.42 7.42 0 0 1 2.45.44 6.37 6.37 0 0 1 2.19 1.3z" fill="#fff" data-name="レイヤー 1"/></g></svg>