<svg xmlns="http://www.w3.org/2000/svg" viewBox="0 0 172.23 58.06"><g data-name="レイヤー 2"><g data-name="レイヤー 1"><path d="M26.7 0a4.23 4.23 0 0 1-.37.84c-.27.56-.65 1.32-1.11 2.28s-1 2.08-1.64 3.33l-2 3.94q-1 2.07-2.11 4.18t-2.07 4c-.66 1.28-1.27 2.44-1.81 3.48s-1 1.88-1.37 2.5a6.16 6.16 0 0 1 2.56-.8 24.88 24.88 0 0 1 3.3-.06 12.93 12.93 0 0 1 4.71.94 12.45 12.45 0 0 1 5.86 5 18.48 18.48 0 0 1 1.5 3.08 15.92 15.92 0 0 1 .76 2.82 14 14 0 0 1 .22 2v3.79c0 .55 0 1-.06 1.32 0 .19-.11.66-.26 1.43a17.36 17.36 0 0 1-.81 2.82 21.05 21.05 0 0 1-1.62 3.4 15.39 15.39 0 0 1-2.77 3.44 16.22 16.22 0 0 1-4.18 2.79A16.69 16.69 0 0 1 17.6 58a17.33 17.33 0 0 1-6.29-.47 14.89 14.89 0 0 1-4.73-2.23 14.22 14.22 0 0 1-3.32-3.34 17.75 17.75 0 0 1-3.1-7.71 12.6 12.6 0 0 1-.1-3.13c.16-1.27.33-2.41.51-3.41s.39-2 .64-2.88.53-1.8.84-2.69.68-1.85 1.1-2.89c.1-.26.39-.88.86-1.86s1-2.18 1.73-3.61 1.47-3 2.33-4.73 1.72-3.46 2.58-5.23Q13.7 7.61 17.48 0zm-1.64 41.68c0-1 0-2.08-.12-3.28a9.4 9.4 0 0 0-.88-3.4 6.9 6.9 0 0 0-2.48-2.79 10 10 0 0 0-4.88-1.41 6.5 6.5 0 0 0-2.69.31 7.33 7.33 0 0 0-2.15 1.18A8.1 8.1 0 0 0 10.24 34a12.41 12.41 0 0 0-1.14 1.9 8.68 8.68 0 0 0-.64 1.74 5.64 5.64 0 0 0-.2 1.23v2.17a16.19 16.19 0 0 0 .26 2.38 9.45 9.45 0 0 0 .72 2.3 6.18 6.18 0 0 0 1.44 2 7.29 7.29 0 0 0 2.41 1.4 10.35 10.35 0 0 0 3.65.55 8 8 0 0 0 3.06-.45 7.58 7.58 0 0 0 2.23-1.25 7.32 7.32 0 0 0 1.51-1.7 10 10 0 0 0 .91-1.83 9 9 0 0 0 .45-1.63 7.25 7.25 0 0 0 .16-1.13z" fill="#fffdec"/><path d="M59.88 33.7h-6.76v7.47h-2.59V24.08h2.59v7.33h6.76v-7.33h2.59v17.09h-2.59zm6.58 1.37a10.67 10.67 0 0 1 .31-3 4.33 4.33 0 0 1 1-1.7 4.62 4.62 0 0 1 1.41-1.09 5.28 5.28 0 0 1 2.28-.48 5.42 5.42 0 0 1 2.33.48 4.26 4.26 0 0 1 1.36 1.09 3.86 3.86 0 0 1 1 1.7 11.67 11.67 0 0 1 .29 3A11.39 11.39 0 0 1 76.2 38a4.21 4.21 0 0 1-1 1.75 3.71 3.71 0 0 1-.57.53 2.75 2.75 0 0 1-.79.5 4.86 4.86 0 0 1-2.33.53 4.74 4.74 0 0 1-2.28-.53 4.68 4.68 0 0 1-1.41-1 4.76 4.76 0 0 1-1-1.75 10.42 10.42 0 0 1-.36-2.96zm7.58 0a10.69 10.69 0 0 0-.12-1.9 2.31 2.31 0 0 0-.48-1 1.73 1.73 0 0 0-.8-.64 2.52 2.52 0 0 0-1.17-.25 2.65 2.65 0 0 0-1.15.25 2.17 2.17 0 0 0-.82.64 2.81 2.81 0 0 0-.45 1 8.55 8.55 0 0 0-.14 1.87 8.28 8.28 0 0 0 .14 1.85A3.06 3.06 0 0 0 69.5 38a3.15 3.15 0 0 0 .82.62 2.65 2.65 0 0 0 1.15.26 2.52 2.52 0 0 0 1.17-.26 2.29 2.29 0 0 0 .8-.62 2.5 2.5 0 0 0 .48-1.06A10 10 0 0 0 74 35.1zm13.32-2.42l-2.54 8.52h-2.21L78.72 29h2.59l2.33 8.52L86.45 29h1.77L91 37.52 93.36 29H96l-3.93 12.17H89.9zm18.52-7.35h2.45V29h1.78v1.87h-1.78V38q0 .91.87.9h.91v2.31h-1.28a2.91 2.91 0 0 1-2.11-.8 2.82 2.82 0 0 1-.84-2.2v-7.3h-1.22V29h1.22zm7.12 9.77a10.61 10.61 0 0 1 .32-3 4.31 4.31 0 0 1 1-1.7 4.62 4.62 0 0 1 1.41-1.09 5.33 5.33 0 0 1 2.29-.48 5.46 5.46 0 0 1 2.33.48 4.38 4.38 0 0 1 1.36 1.09 3.85 3.85 0 0 1 1 1.7 11.67 11.67 0 0 1 .29 3 11.39 11.39 0 0 1-.29 2.93 4.19 4.19 0 0 1-1 1.75 4.36 4.36 0 0 1-.58.53 2.69 2.69 0 0 1-.78.5 4.89 4.89 0 0 1-2.33.53 4.78 4.78 0 0 1-2.29-.53 4.68 4.68 0 0 1-1.41-1 4.74 4.74 0 0 1-1-1.75 10.35 10.35 0 0 1-.32-2.96zm7.58 0a12 12 0 0 0-.11-1.9 2.22 2.22 0 0 0-.49-1 1.7 1.7 0 0 0-.79-.64 2.82 2.82 0 0 0-2.32 0 2.1 2.1 0 0 0-.82.64 2.83 2.83 0 0 0-.46 1 9.23 9.23 0 0 0-.14 1.87 8.94 8.94 0 0 0 .14 1.85 3.08 3.08 0 0 0 .46 1.06 3 3 0 0 0 .82.62 2.72 2.72 0 0 0 2.32 0A2.25 2.25 0 0 0 120 38a2.4 2.4 0 0 0 .49-1.06 11.23 11.23 0 0 0 .1-1.84zm13.09-10.99h2.59v11a3.49 3.49 0 0 0 1 2.66 3.34 3.34 0 0 0 2.47 1 3.4 3.4 0 0 0 2.49-1 3.56 3.56 0 0 0 1-2.66v-11h2.59v11.3a5.7 5.7 0 0 1-1.75 4.28 6.44 6.44 0 0 1-8.61 0 5.55 5.55 0 0 1-1.78-4.28zM154.29 39a3.29 3.29 0 0 0 1.71-.4 1.29 1.29 0 0 0 .67-1.15 1 1 0 0 0-.4-.91 2 2 0 0 0-1.09-.29l-2.18-.19a4.15 4.15 0 0 1-2.49-1 3.11 3.11 0 0 1-1-2.43 3.29 3.29 0 0 1 1.32-2.81 5.24 5.24 0 0 1 3.21-.94 9.85 9.85 0 0 1 1.52.11 6.93 6.93 0 0 1 1.25.32 7.33 7.33 0 0 1 2 1.23l-1.51 1.77a7.76 7.76 0 0 0-1.49-.83 5.07 5.07 0 0 0-1.78-.29 2.42 2.42 0 0 0-1.6.41 1.31 1.31 0 0 0-.48 1 .81.81 0 0 0 .36.72 2.09 2.09 0 0 0 1.24.43l2 .15a3.81 3.81 0 0 1 2.74 1.15 3.91 3.91 0 0 1 .79 2.5 3.17 3.17 0 0 1-1.45 2.73 6.22 6.22 0 0 1-3.59 1 7.75 7.75 0 0 1-5.36-2.18l1.71-1.68a5.09 5.09 0 0 0 3.9 1.58zm10.36-3a2.77 2.77 0 0 0 2.91 3 3.64 3.64 0 0 0 2.66-1.18l1.78 1.52a5.78 5.78 0 0 1-4.39 2 6.57 6.57 0 0 1-1.87-.28 5.1 5.1 0 0 1-.89-.41 4.83 4.83 0 0 1-.86-.55 5 5 0 0 1-1.25-1.9 7.52 7.52 0 0 1-.53-3.05 8.37 8.37 0 0 1 .46-3 5.14 5.14 0 0 1 1.17-1.92 4.29 4.29 0 0 1 1.63-1 5.24 5.24 0 0 1 1.76-.32 5.05 5.05 0 0 1 3.52 1.37 5 5 0 0 1 1.48 3.72v2zm5.13-2a3.07 3.07 0 0 0-.76-2.15 2.71 2.71 0 0 0-3.61 0 3.26 3.26 0 0 0-.76 2.15z" fill="#e50012"/></g></g></svg>