<svg xmlns="http://www.w3.org/2000/svg" viewBox="0 0 172.64 57.42"><g data-name="レイヤー 2"><g data-name="レイヤー 1"><path d="M0 49.73l22.23-27.82A10.62 10.62 0 0 0 24 18.79a11.51 11.51 0 0 0 .32-2.58 8.46 8.46 0 0 0-2-5.59 7.61 7.61 0 0 0-5.85-2.46 7.74 7.74 0 0 0-5.59 2.15 9.37 9.37 0 0 0-2.74 6.06H0A17.5 17.5 0 0 1 4.77 4.61 15.22 15.22 0 0 1 15.82 0a16.28 16.28 0 0 1 11.91 4.69 15.81 15.81 0 0 1 4.73 11.6 15.76 15.76 0 0 1-3.44 10l-18.32 23h21.76v8.16H0z" fill="#fffdec"/><path d="M60.29 33.58h-6.77v7.47h-2.58V24h2.58v7.33h6.77V24h2.59v17.05h-2.59zM66.87 35a10.71 10.71 0 0 1 .31-3 4.33 4.33 0 0 1 1-1.7 4.66 4.66 0 0 1 1.41-1.09 5.28 5.28 0 0 1 2.28-.48 5.42 5.42 0 0 1 2.33.48 4.4 4.4 0 0 1 1.36 1.09 3.76 3.76 0 0 1 1 1.7 11.18 11.18 0 0 1 .3 3 10.93 10.93 0 0 1-.3 2.93 4.06 4.06 0 0 1-1 1.74 3.27 3.27 0 0 1-.57.53 2.75 2.75 0 0 1-.79.5 4.86 4.86 0 0 1-2.33.53 4.74 4.74 0 0 1-2.28-.53 4.56 4.56 0 0 1-1.41-1 4.72 4.72 0 0 1-1-1.74 10.47 10.47 0 0 1-.31-2.96zm7.58 0a10.69 10.69 0 0 0-.12-1.9 2.31 2.31 0 0 0-.48-1 1.78 1.78 0 0 0-.8-.64 2.52 2.52 0 0 0-1.17-.25 2.61 2.61 0 0 0-1.15.25 2.17 2.17 0 0 0-.82.64 2.81 2.81 0 0 0-.45 1 8.45 8.45 0 0 0-.15 1.9 8.2 8.2 0 0 0 .15 1.85 2.12 2.12 0 0 0 1.27 1.67 2.49 2.49 0 0 0 1.15.26 2.41 2.41 0 0 0 1.17-.26 2.27 2.27 0 0 0 .8-.62 2.41 2.41 0 0 0 .48-1 10 10 0 0 0 .12-1.9zm13.31-2.47l-2.55 8.52H83l-3.87-12.16h2.59l2.33 8.52 2.76-8.52h1.77l2.77 8.52 2.32-8.52h2.59l-3.78 12.16h-2.17zm18.53-7.35h2.45v3.71h1.78v1.86h-1.78v7.09q0 .93.87.9h.91v2.31h-1.28a2.91 2.91 0 0 1-2.11-.8 2.81 2.81 0 0 1-.84-2.2v-7.3h-1.22v-1.86h1.22zm7.13 9.82a10.27 10.27 0 0 1 .32-3 4.19 4.19 0 0 1 1-1.7 4.78 4.78 0 0 1 1.41-1.09 5.33 5.33 0 0 1 2.29-.48 5.46 5.46 0 0 1 2.33.48 4.52 4.52 0 0 1 1.36 1.09 3.94 3.94 0 0 1 1 1.7 11.7 11.7 0 0 1 .29 3 11.44 11.44 0 0 1-.29 2.93 4.27 4.27 0 0 1-1 1.74 3.77 3.77 0 0 1-.58.53 2.69 2.69 0 0 1-.78.5 4.89 4.89 0 0 1-2.33.53 4.78 4.78 0 0 1-2.29-.53 4.68 4.68 0 0 1-1.41-1 4.56 4.56 0 0 1-1-1.74 10 10 0 0 1-.32-2.96zm7.58 0a10.69 10.69 0 0 0-.12-1.9 2.11 2.11 0 0 0-.48-1 1.76 1.76 0 0 0-.79-.64 2.82 2.82 0 0 0-2.32 0 2.1 2.1 0 0 0-.82.64 2.83 2.83 0 0 0-.46 1 9.28 9.28 0 0 0-.14 1.88 9 9 0 0 0 .14 1.85 3 3 0 0 0 .46 1 2.81 2.81 0 0 0 .82.62 2.72 2.72 0 0 0 2.32 0 2.23 2.23 0 0 0 .79-.62 2.2 2.2 0 0 0 .48-1A10 10 0 0 0 121 35zm13.08-11h2.59v11a3.53 3.53 0 0 0 1 2.66 3.7 3.7 0 0 0 5 0 3.6 3.6 0 0 0 1-2.66V24h2.59v11.3a5.72 5.72 0 0 1-1.75 4.28 6.44 6.44 0 0 1-8.61 0 5.53 5.53 0 0 1-1.78-4.28zm20.62 14.89a3.2 3.2 0 0 0 1.72-.41 1.28 1.28 0 0 0 .67-1.15 1 1 0 0 0-.4-.91 2.07 2.07 0 0 0-1.09-.29l-2.16-.19a4.09 4.09 0 0 1-2.49-1 3.11 3.11 0 0 1-1-2.43 3.27 3.27 0 0 1 1.32-2.81 5.31 5.31 0 0 1 3.21-.94 9.62 9.62 0 0 1 1.51.11 7.73 7.73 0 0 1 1.26.33 6.88 6.88 0 0 1 2 1.23l-1.51 1.77a7.3 7.3 0 0 0-1.49-.84 5.11 5.11 0 0 0-1.78-.29 2.42 2.42 0 0 0-1.6.41 1.34 1.34 0 0 0-.48 1.06.8.8 0 0 0 .36.71 2.13 2.13 0 0 0 1.24.44l2 .15a3.73 3.73 0 0 1 2.76 1.16 3.87 3.87 0 0 1 .79 2.49 3.17 3.17 0 0 1-1.45 2.73 6.22 6.22 0 0 1-3.59 1 7.75 7.75 0 0 1-5.36-2.22l1.71-1.68a5.07 5.07 0 0 0 3.85 1.57zm10.36-3a2.86 2.86 0 0 0 .84 2.23 2.81 2.81 0 0 0 2.07.77 3.66 3.66 0 0 0 2.66-1.18l1.77 1.51a5.74 5.74 0 0 1-4.39 2 6.23 6.23 0 0 1-1.87-.28 4.46 4.46 0 0 1-.89-.41 4.33 4.33 0 0 1-.86-.55 4.88 4.88 0 0 1-1.25-1.9 7.52 7.52 0 0 1-.53-3 8.37 8.37 0 0 1 .46-3 5.14 5.14 0 0 1 1.17-1.92 4.29 4.29 0 0 1 1.63-1 5.24 5.24 0 0 1 1.76-.32 5.1 5.1 0 0 1 3.52 1.37 5 5 0 0 1 1.49 3.78v2zm5.13-2a3.09 3.09 0 0 0-.76-2.15 2.71 2.71 0 0 0-3.61 0 3.28 3.28 0 0 0-.76 2.15z" fill="#e50012"/></g></g></svg>