<svg xmlns="http://www.w3.org/2000/svg" viewBox="0 0 174.24 56.95"><g data-name="レイヤー 2"><g data-name="レイヤー 1"><path d="M0 40.78L19 0h9.1L8.87 40.78h14.88V24.41h8.16v16.37h4.54v7.7h-4.54V57h-8.16v-8.52H0z" fill="#fffdec"/><path d="M61.89 33.12h-6.76v7.46h-2.59V23.5h2.59v7.32h6.76V23.5h2.59v17.08h-2.59zm6.58 1.37a10.75 10.75 0 0 1 .31-3 4.4 4.4 0 0 1 1-1.7 4.77 4.77 0 0 1 1.41-1.08 5.14 5.14 0 0 1 2.28-.49 5.27 5.27 0 0 1 2.33.49 4.38 4.38 0 0 1 1.36 1.08 3.92 3.92 0 0 1 1 1.7 11.76 11.76 0 0 1 .29 3 11.39 11.39 0 0 1-.29 2.93 4.18 4.18 0 0 1-1 1.74 3.27 3.27 0 0 1-.57.53 2.44 2.44 0 0 1-.79.5 4.75 4.75 0 0 1-2.33.53 4.63 4.63 0 0 1-2.28-.53 4.52 4.52 0 0 1-1.41-1 4.72 4.72 0 0 1-1-1.74 10.42 10.42 0 0 1-.31-2.96zm7.58 0a10.69 10.69 0 0 0-.12-1.9 2.31 2.31 0 0 0-.48-1 1.8 1.8 0 0 0-.8-.64 2.66 2.66 0 0 0-1.17-.25 2.8 2.8 0 0 0-1.15.25 2.36 2.36 0 0 0-.82.64 2.81 2.81 0 0 0-.45 1 8.65 8.65 0 0 0-.14 1.88 8.34 8.34 0 0 0 .14 1.85 2.93 2.93 0 0 0 .45 1 3.1 3.1 0 0 0 .82.62 2.52 2.52 0 0 0 1.15.26 2.41 2.41 0 0 0 1.17-.2 2.18 2.18 0 0 0 .8-.62 2.41 2.41 0 0 0 .48-1 10 10 0 0 0 .12-1.87zm13.32-2.43h-.05l-2.54 8.52h-2.16l-3.89-12.16h2.59l2.33 8.52 2.76-8.52h1.77L93 36.94l2.32-8.52H98l-3.92 12.16h-2.17zm18.52-7.35h2.45v3.71h1.78v1.86h-1.78v7.09q0 .93.87.9h.91v2.31h-1.28a2.87 2.87 0 0 1-2.11-.8 2.81 2.81 0 0 1-.84-2.2v-7.3h-1.22v-1.86h1.22zm7.11 9.78a10.69 10.69 0 0 1 .32-3 4.28 4.28 0 0 1 1-1.7 4.59 4.59 0 0 1 1.4-1.08 5.21 5.21 0 0 1 2.29-.49 5.3 5.3 0 0 1 2.33.49 4.5 4.5 0 0 1 1.36 1.08 3.9 3.9 0 0 1 1 1.7 11.76 11.76 0 0 1 .29 3 11.39 11.39 0 0 1-.29 2.93 4.16 4.16 0 0 1-1 1.74 3.77 3.77 0 0 1-.58.53 2.5 2.5 0 0 1-.78.5 4.78 4.78 0 0 1-2.33.53 4.7 4.7 0 0 1-2.29-.53 4.35 4.35 0 0 1-1.4-1 4.58 4.58 0 0 1-1-1.74 10.35 10.35 0 0 1-.32-2.96zm7.58 0a12 12 0 0 0-.11-1.9 2.31 2.31 0 0 0-.48-1 1.85 1.85 0 0 0-.8-.64 2.82 2.82 0 0 0-2.32 0 2.19 2.19 0 0 0-.82.64 2.83 2.83 0 0 0-.46 1 9.35 9.35 0 0 0-.14 1.88 9 9 0 0 0 .14 1.85 3 3 0 0 0 .46 1 2.81 2.81 0 0 0 .82.62 2.72 2.72 0 0 0 2.32 0 2.27 2.27 0 0 0 .8-.62 2.41 2.41 0 0 0 .48-1 11.29 11.29 0 0 0 .13-1.81zm13.1-10.99h2.59v11a3.49 3.49 0 0 0 1 2.66 3.34 3.34 0 0 0 2.47 1 3.44 3.44 0 0 0 2.5-1 3.59 3.59 0 0 0 1-2.66v-11h2.59v11.29a5.69 5.69 0 0 1-1.75 4.28 6.44 6.44 0 0 1-8.61 0 5.53 5.53 0 0 1-1.78-4.28zm20.62 14.92A3.2 3.2 0 0 0 158 38a1.28 1.28 0 0 0 .67-1.14 1 1 0 0 0-.4-.92 2 2 0 0 0-1.09-.29l-2.18-.18a4.09 4.09 0 0 1-2.49-1 3.11 3.11 0 0 1-1-2.43 3.3 3.3 0 0 1 1.32-2.81 5.31 5.31 0 0 1 3.21-.94 9.85 9.85 0 0 1 1.52.11 7.88 7.88 0 0 1 1.25.33 7.06 7.06 0 0 1 2 1.23l-1.52 1.77a7 7 0 0 0-1.48-.83 4.94 4.94 0 0 0-1.79-.3 2.42 2.42 0 0 0-1.6.41 1.34 1.34 0 0 0-.42.99.8.8 0 0 0 .36.71 2.15 2.15 0 0 0 1.24.44l2 .15a3.77 3.77 0 0 1 2.74 1.15 3.89 3.89 0 0 1 .79 2.49 3.18 3.18 0 0 1-1.44 2.73 6.2 6.2 0 0 1-3.6 1 7.7 7.7 0 0 1-5.36-2.18l1.71-1.67a5.09 5.09 0 0 0 3.86 1.6zm10.36-3a2.86 2.86 0 0 0 .84 2.23 2.82 2.82 0 0 0 2.07.77 3.64 3.64 0 0 0 2.66-1.18l1.77 1.51a5.74 5.74 0 0 1-4.39 2 6.23 6.23 0 0 1-1.87-.28 4.46 4.46 0 0 1-.89-.41 4.33 4.33 0 0 1-.86-.55 4.88 4.88 0 0 1-1.25-1.9 7.52 7.52 0 0 1-.53-3 8.37 8.37 0 0 1 .46-3 5.14 5.14 0 0 1 1.17-1.92 4.42 4.42 0 0 1 1.63-1 5.24 5.24 0 0 1 1.76-.32 5.06 5.06 0 0 1 3.52 1.38 4.94 4.94 0 0 1 1.49 3.77v2zm5.13-2a3.09 3.09 0 0 0-.76-2.15 2.71 2.71 0 0 0-3.61 0 3.28 3.28 0 0 0-.76 2.15z" fill="#e50012"/></g></g></svg>