<svg xmlns="http://www.w3.org/2000/svg" viewBox="0 0 91.28 128.4"><g data-name="レイヤー 2"><g data-name="レイヤー 1"><path d="M18.46 0h53.12v14.29H31.93v22.56a25.09 25.09 0 0 1 15.93-5.47 30 30 0 0 1 10.53 2.05 23 23 0 0 1 7.31 5.19 24.2 24.2 0 0 1 6 9.5 33.83 33.83 0 0 1 1.37 7.18c.27 2.87.41 6.41.41 10.6q0 9.7-1.37 14.9a23.78 23.78 0 0 1-4.78 9.09A27.84 27.84 0 0 1 58.8 97a25.24 25.24 0 0 1-13 3.49 31.15 31.15 0 0 1-18.53-6q-8.55-6.15-10.59-19.89H31q2.3 11.47 14.26 11.6a14.54 14.54 0 0 0 8.2-2 10.45 10.45 0 0 0 4.11-5.2 24.34 24.34 0 0 0 1.5-7q.13-3.69.14-7.18.13-8.53-2.67-13.87a10.66 10.66 0 0 0-4.44-4 19 19 0 0 0-7.32-1.23 14.48 14.48 0 0 0-7.11 1.78 16.09 16.09 0 0 0-5.74 6.43H18.46z" fill="#fbc400"/><path d="M7 122.7H1.94v5.6H0v-12.82h1.94V121H7v-5.49h2v12.79H7zm5 1.03a7.89 7.89 0 0 1 .24-2.22 3.11 3.11 0 0 1 .75-1.27 3.28 3.28 0 0 1 1.06-.82 3.81 3.81 0 0 1 1.71-.36 4 4 0 0 1 1.75.36 3.2 3.2 0 0 1 1 .82 2.85 2.85 0 0 1 .77 1.27 8.42 8.42 0 0 1 .22 2.22 8.12 8.12 0 0 1-.22 2.19 3.1 3.1 0 0 1-.77 1.31 2.78 2.78 0 0 1-.43.4 2.22 2.22 0 0 1-.59.38 3.68 3.68 0 0 1-1.75.39A3.54 3.54 0 0 1 14 128a3.35 3.35 0 0 1-1.06-.78 3.41 3.41 0 0 1-.75-1.31 7.6 7.6 0 0 1-.19-2.18zm5.68 0a9.38 9.38 0 0 0-.08-1.42 1.73 1.73 0 0 0-.36-.76 1.46 1.46 0 0 0-.6-.48 2.19 2.19 0 0 0-1.74 0 1.75 1.75 0 0 0-.62.48 2.11 2.11 0 0 0-.34.76 6.73 6.73 0 0 0-.11 1.41 6.4 6.4 0 0 0 .11 1.38 2.3 2.3 0 0 0 .34.8 2.33 2.33 0 0 0 .62.46 2.09 2.09 0 0 0 1.74 0 1.83 1.83 0 0 0 .6-.46 1.88 1.88 0 0 0 .36-.8 8.8 8.8 0 0 0 .03-1.36zm9.94-1.82l-1.91 6.39h-1.65l-2.92-9.13h1.95l1.75 6.39 2.16-6.39h1.32l2.08 6.39 1.74-6.39h1.94l-2.9 9.13h-1.65zm13.9-5.51h1.83v2.77h1.34v1.4h-1.34v5.32c0 .46.21.69.65.67h.69v1.74h-1a2.17 2.17 0 0 1-1.58-.6 2.11 2.11 0 0 1-.63-1.65v-5.48h-.88v-1.4h.92zm5.34 7.33a7.89 7.89 0 0 1 .24-2.22 3.13 3.13 0 0 1 .76-1.27 3.34 3.34 0 0 1 1-.82 4.34 4.34 0 0 1 3.46 0 3.2 3.2 0 0 1 1 .82 2.87 2.87 0 0 1 .78 1.27 8.87 8.87 0 0 1 .22 2.22 8.55 8.55 0 0 1-.22 2.19 3.12 3.12 0 0 1-.78 1.31 2.39 2.39 0 0 1-.43.4 2.22 2.22 0 0 1-.59.38 4 4 0 0 1-3.46 0 3.5 3.5 0 0 1-1.81-2.09 7.6 7.6 0 0 1-.17-2.19zm5.69 0a8 8 0 0 0-.09-1.42 1.73 1.73 0 0 0-.36-.76 1.34 1.34 0 0 0-.6-.48 2 2 0 0 0-.88-.18 2.07 2.07 0 0 0-.86.18 1.72 1.72 0 0 0-.61.48 2.11 2.11 0 0 0-.34.76 6.73 6.73 0 0 0-.11 1.41 6.4 6.4 0 0 0 .11 1.38 2.3 2.3 0 0 0 .34.8 2.27 2.27 0 0 0 .61.46 1.93 1.93 0 0 0 .86.19 1.87 1.87 0 0 0 .88-.19 1.64 1.64 0 0 0 .6-.46 1.88 1.88 0 0 0 .36-.8 7.48 7.48 0 0 0 .09-1.36zm9.81-8.25h1.94v8.26a2.65 2.65 0 0 0 .75 2 2.78 2.78 0 0 0 3.73 0 2.68 2.68 0 0 0 .74-2v-8.26h1.94V124a4.26 4.26 0 0 1-1.31 3.21 4.83 4.83 0 0 1-6.46 0 4.14 4.14 0 0 1-1.33-3.21zm15.46 11.2a2.37 2.37 0 0 0 1.29-.31.94.94 0 0 0 .5-.86.76.76 0 0 0-.3-.69 1.66 1.66 0 0 0-.81-.22l-1.62-.14a3 3 0 0 1-1.87-.77 2.35 2.35 0 0 1-.76-1.82 2.45 2.45 0 0 1 1-2.11 3.9 3.9 0 0 1 2.4-.7 6.57 6.57 0 0 1 1.14.08 6.8 6.8 0 0 1 .94.24 5.44 5.44 0 0 1 1.51.93l-1.13 1.32A5.87 5.87 0 0 0 79 121a3.69 3.69 0 0 0-1.34-.22 1.78 1.78 0 0 0-1.2.31 1 1 0 0 0-.36.79.62.62 0 0 0 .27.53 1.62 1.62 0 0 0 .93.33l1.51.11a2.81 2.81 0 0 1 2.06.87 2.91 2.91 0 0 1 .59 1.87 2.37 2.37 0 0 1-1.08 2.05 4.68 4.68 0 0 1-2.7.75 5.79 5.79 0 0 1-4-1.63l1.29-1.26a3.79 3.79 0 0 0 2.85 1.18zm7.77-2.25a2.11 2.11 0 0 0 .64 1.67 2.07 2.07 0 0 0 1.54.58 2.76 2.76 0 0 0 2-.89l1.32 1.13a4.28 4.28 0 0 1-3.28 1.48 4.82 4.82 0 0 1-1.41-.21 3.67 3.67 0 0 1-.67-.31 3.31 3.31 0 0 1-.64-.41 3.67 3.67 0 0 1-.94-1.42 5.72 5.72 0 0 1-.39-2.29 6.34 6.34 0 0 1 .34-2.25 3.88 3.88 0 0 1 .88-1.44 3.12 3.12 0 0 1 1.22-.77 3.88 3.88 0 0 1 1.32-.24 3.75 3.75 0 0 1 2.64 1 3.7 3.7 0 0 1 1.12 2.83v1.51zm3.85-1.51a2.29 2.29 0 0 0-.57-1.61 2 2 0 0 0-2.7 0 2.43 2.43 0 0 0-.58 1.61z" fill="#e50012"/></g></g></svg>