<svg xmlns="http://www.w3.org/2000/svg" viewBox="0 0 91.28 128.97"><g data-name="レイヤー 2"><g data-name="レイヤー 1"><path d="M26.26 100.24a21.68 21.68 0 0 1 1.16-2.5l3.21-6.46q2-4 4.44-8.81t4.86-9.57q2.39-4.73 4.48-8.69T47.79 58a10.73 10.73 0 0 1-4.48 1.41 42.72 42.72 0 0 1-5.77.1 20.94 20.94 0 0 1-7.9-1.64 21.4 21.4 0 0 1-5.84-3.77 22.06 22.06 0 0 1-4.11-5 34.24 34.24 0 0 1-2.63-5.4 29.77 29.77 0 0 1-1.43-4.92 19.87 19.87 0 0 1-.45-3.59v-6.63a20 20 0 0 1 .17-2.32c0-.32.19-1.13.44-2.43a30 30 0 0 1 1.4-4.68A38.3 38.3 0 0 1 20 13.25a26 26 0 0 1 4.81-5.84 27.81 27.81 0 0 1 7.32-4.72A31.82 31.82 0 0 1 42.46.16a31.53 31.53 0 0 1 11 .75 25.32 25.32 0 0 1 8.14 3.76 23.26 23.26 0 0 1 5.67 5.75 30.56 30.56 0 0 1 3.52 6.66 30.17 30.17 0 0 1 1.68 6.56 22.59 22.59 0 0 1 .13 5.44c-.27 2.23-.57 4.23-.89 6s-.69 3.43-1.12 5-.93 3.17-1.47 4.72-1.19 3.2-1.92 5.06c-.18.5-.67 1.59-1.47 3.28s-1.8 3.75-3 6.19-2.53 5.15-4 8.13-2.9 6-4.41 9l-11.73 23.78zm3.07-72.19q0 2.67.28 5.88a17.54 17.54 0 0 0 1.6 6 12.28 12.28 0 0 0 4.21 4.85q2.86 2 8.06 2.29a11.61 11.61 0 0 0 4.72-.64 13.71 13.71 0 0 0 3.8-2.04 15.19 15.19 0 0 0 2.84-2.94 22.29 22.29 0 0 0 2-3.25 15.7 15.7 0 0 0 1.13-3 10 10 0 0 0 .28-2.2c0-1.14-.08-2.41-.1-3.83a29.06 29.06 0 0 0-.41-4.3 18.6 18.6 0 0 0-1.27-4.21 10.44 10.44 0 0 0-2.53-3.52 11.64 11.64 0 0 0-4.2-2.36 17.63 17.63 0 0 0-6.39-.64 12.82 12.82 0 0 0-6.94 2.11 16.71 16.71 0 0 0-4.27 4.24A15.8 15.8 0 0 0 30 25a13.78 13.78 0 0 0-.67 3.05z" fill="#fbc400"/><path d="M7 123.27H1.94v5.6H0v-12.82h1.94v5.5H7v-5.5h2v12.82H7zm5 1.03a7.93 7.93 0 0 1 .24-2.22 3.11 3.11 0 0 1 .75-1.27A3.28 3.28 0 0 1 14 120a3.81 3.81 0 0 1 1.71-.36 4 4 0 0 1 1.75.36 3.2 3.2 0 0 1 1 .82 2.85 2.85 0 0 1 .77 1.27 8.47 8.47 0 0 1 .22 2.22 8.12 8.12 0 0 1-.22 2.19 3 3 0 0 1-.77 1.31 2.78 2.78 0 0 1-.43.4 2 2 0 0 1-.59.38 3.68 3.68 0 0 1-1.75.39 3.54 3.54 0 0 1-1.71-.39 3.42 3.42 0 0 1-1.81-2.09 7.6 7.6 0 0 1-.17-2.2zm5.68 0a9.44 9.44 0 0 0-.08-1.43 1.64 1.64 0 0 0-.36-.75 1.4 1.4 0 0 0-.6-.49 2.19 2.19 0 0 0-1.74 0 1.67 1.67 0 0 0-.62.49 2 2 0 0 0-.34.75 6.73 6.73 0 0 0-.11 1.41 6.58 6.58 0 0 0 .11 1.39 2.25 2.25 0 0 0 .34.79 2.33 2.33 0 0 0 .62.46 2 2 0 0 0 1.74 0 1.68 1.68 0 0 0 1-1.25 8.89 8.89 0 0 0-.01-1.35zm9.94-1.82l-1.91 6.39h-1.65l-2.92-9.13h1.95l1.75 6.39 2.16-6.39h1.32l2.08 6.39 1.74-6.39h1.94l-2.9 9.13h-1.65zm13.9-5.48h1.83v2.77h1.34v1.4h-1.34v5.32c0 .46.21.69.65.68h.69v1.73h-1a2.17 2.17 0 0 1-1.58-.6 2.11 2.11 0 0 1-.63-1.65v-5.48h-.88v-1.4h.92zm5.34 7.3a7.93 7.93 0 0 1 .24-2.22 3.13 3.13 0 0 1 .76-1.27 3.34 3.34 0 0 1 1-.82 4.34 4.34 0 0 1 3.46 0 3.2 3.2 0 0 1 1 .82 2.87 2.87 0 0 1 .78 1.27 8.93 8.93 0 0 1 .22 2.22 8.55 8.55 0 0 1-.22 2.19 3.06 3.06 0 0 1-.78 1.31 2.39 2.39 0 0 1-.43.4 2 2 0 0 1-.59.38 4 4 0 0 1-3.46 0 3.42 3.42 0 0 1-1-.78 3.35 3.35 0 0 1-.76-1.31 7.6 7.6 0 0 1-.22-2.19zm5.69 0a8 8 0 0 0-.09-1.43 1.64 1.64 0 0 0-.36-.75 1.29 1.29 0 0 0-.6-.49 2 2 0 0 0-.88-.18 2.07 2.07 0 0 0-.86.18 1.64 1.64 0 0 0-.61.49 2 2 0 0 0-.34.75 6.73 6.73 0 0 0-.11 1.41 6.58 6.58 0 0 0 .11 1.39 1.58 1.58 0 0 0 .95 1.25 1.94 1.94 0 0 0 .86.2 1.87 1.87 0 0 0 .88-.2 1.64 1.64 0 0 0 .6-.46 1.84 1.84 0 0 0 .36-.79 7.56 7.56 0 0 0 .09-1.35zm9.81-8.25h1.94v8.27a2.64 2.64 0 0 0 .75 2 2.78 2.78 0 0 0 3.73 0 2.67 2.67 0 0 0 .74-2v-8.27h1.94v8.48a4.26 4.26 0 0 1-1.31 3.2 4.83 4.83 0 0 1-6.46 0 4.13 4.13 0 0 1-1.33-3.2zm15.46 11.2a2.37 2.37 0 0 0 1.29-.31.94.94 0 0 0 .5-.86.74.74 0 0 0-.3-.68 1.47 1.47 0 0 0-.81-.22l-1.62-.18a3 3 0 0 1-1.87-.78 2.35 2.35 0 0 1-.76-1.82 2.46 2.46 0 0 1 1-2.11 3.9 3.9 0 0 1 2.4-.7 7.73 7.73 0 0 1 1.14.08 5.64 5.64 0 0 1 .94.25 5.19 5.19 0 0 1 1.51.92l-1.13 1.33a5.93 5.93 0 0 0-1.12-.63 3.92 3.92 0 0 0-1.34-.22 1.78 1.78 0 0 0-1.2.31 1 1 0 0 0-.36.79.64.64 0 0 0 .27.54 1.56 1.56 0 0 0 .93.32l1.51.12a2.81 2.81 0 0 1 2.06.86 2.91 2.91 0 0 1 .59 1.87 2.37 2.37 0 0 1-1.08 2 4.68 4.68 0 0 1-2.7.75 5.79 5.79 0 0 1-4-1.63l1.29-1.26a3.79 3.79 0 0 0 2.86 1.26zm7.77-2.25a2.11 2.11 0 0 0 .64 1.67 2.07 2.07 0 0 0 1.54.58 2.76 2.76 0 0 0 2-.89l1.32 1.14a4.27 4.27 0 0 1-3.28 1.5 4.82 4.82 0 0 1-1.41-.21 3.11 3.11 0 0 1-.67-.31 2.9 2.9 0 0 1-.64-.41 3.67 3.67 0 0 1-.94-1.42 5.72 5.72 0 0 1-.39-2.29 6.34 6.34 0 0 1 .34-2.25 3.88 3.88 0 0 1 .88-1.44 3.23 3.23 0 0 1 1.22-.77 3.88 3.88 0 0 1 1.32-.24 3.8 3.8 0 0 1 2.64 1 3.7 3.7 0 0 1 1.12 2.83V125zm3.85-1.51a2.29 2.29 0 0 0-.57-1.61 2 2 0 0 0-2.7 0 2.43 2.43 0 0 0-.58 1.61z" fill="#e50012"/></g></g></svg>