<svg xmlns="http://www.w3.org/2000/svg" viewBox="0 0 170.49 57.89"><g data-name="レイヤー 2"><g data-name="レイヤー 1"><path d="M150.06 24.45h2.82a8.76 8.76 0 0 0 6.48-2.3 7.67 7.67 0 0 0 2.3-5.78 8.23 8.23 0 0 0-2.38-5.9 8.48 8.48 0 0 0-5.94-2.31 7.54 7.54 0 0 0-4.76 1.68 8.47 8.47 0 0 0-3.05 5.2h-8.16a16.6 16.6 0 0 1 5.11-10.66A14.87 14.87 0 0 1 153 0q7.77.08 12.35 5a16.42 16.42 0 0 1 4.45 11.25 17.5 17.5 0 0 1-1.17 6.33 13.32 13.32 0 0 1-4.86 5.42 14.22 14.22 0 0 1 5.2 5.62 16.24 16.24 0 0 1 1.52 6.88q-.08 8-5 12.62a17.12 17.12 0 0 1-12.34 4.8 15.62 15.62 0 0 1-10.31-3.75q-4.5-3.75-5.83-10.86h8.17a11.59 11.59 0 0 0 3.08 4.61 7.74 7.74 0 0 0 5.4 1.84 8.23 8.23 0 0 0 6.05-2.46 8.71 8.71 0 0 0 2.58-6.57 9.07 9.07 0 0 0-2.54-6.73 8.8 8.8 0 0 0-6.25-2.3h-3.44z" fill="#fffdec"/><path d="M9.35 33.58H2.59v7.47H0V24h2.59v7.33h6.76V24h2.59v17.05H9.35zM15.93 35a10.64 10.64 0 0 1 .32-3 4.19 4.19 0 0 1 1-1.7 4.78 4.78 0 0 1 1.41-1.09 5.33 5.33 0 0 1 2.34-.48 5.46 5.46 0 0 1 2.33.48 4.52 4.52 0 0 1 1.36 1.09 3.94 3.94 0 0 1 1 1.7 11.7 11.7 0 0 1 .31 3 11.44 11.44 0 0 1-.29 2.93 4.27 4.27 0 0 1-1 1.74 3.77 3.77 0 0 1-.58.53 2.69 2.69 0 0 1-.78.5 4.89 4.89 0 0 1-2.33.53 4.78 4.78 0 0 1-2.29-.53 4.68 4.68 0 0 1-1.41-1 4.56 4.56 0 0 1-1-1.74 10.4 10.4 0 0 1-.39-2.96zm7.58 0a10.69 10.69 0 0 0-.12-1.9 2.11 2.11 0 0 0-.48-1 1.76 1.76 0 0 0-.79-.64 2.82 2.82 0 0 0-2.32 0 2.1 2.1 0 0 0-.82.64 2.83 2.83 0 0 0-.46 1 9.28 9.28 0 0 0-.14 1.9 9 9 0 0 0 .14 1.85 3 3 0 0 0 .46 1 2.81 2.81 0 0 0 .82.62 2.72 2.72 0 0 0 2.32 0 2.23 2.23 0 0 0 .79-.62 2.2 2.2 0 0 0 .48-1 10 10 0 0 0 .12-1.85zm13.32-2.47l-2.54 8.52h-2.21l-3.89-12.16h2.59l2.33 8.52 2.77-8.52h1.82l2.76 8.52 2.32-8.52h2.59l-3.83 12.16h-2.17zm18.52-7.35h2.45v3.71h1.78v1.86H57.8v7.09q0 .93.87.9h.91v2.31h-1.27a2.9 2.9 0 0 1-2.11-.8 2.78 2.78 0 0 1-.85-2.2v-7.3h-1.22v-1.86h1.22zM62.48 35a10.64 10.64 0 0 1 .32-3 4.33 4.33 0 0 1 1-1.7 4.6 4.6 0 0 1 1.4-1.09 5.37 5.37 0 0 1 2.29-.48 5.42 5.42 0 0 1 2.33.48 4.4 4.4 0 0 1 1.36 1.09 3.76 3.76 0 0 1 1 1.7 11.18 11.18 0 0 1 .3 3 10.93 10.93 0 0 1-.3 2.93 4.06 4.06 0 0 1-1 1.74 3.68 3.68 0 0 1-.57.53 2.89 2.89 0 0 1-.79.5 4.86 4.86 0 0 1-2.33.53 4.81 4.81 0 0 1-2.29-.53 4.5 4.5 0 0 1-1.4-1 4.72 4.72 0 0 1-1-1.74 10.4 10.4 0 0 1-.32-2.96zm7.59 0a10.69 10.69 0 0 0-.12-1.9 2.31 2.31 0 0 0-.48-1 1.78 1.78 0 0 0-.8-.64 2.52 2.52 0 0 0-1.17-.25 2.61 2.61 0 0 0-1.15.25 2.17 2.17 0 0 0-.82.64 3 3 0 0 0-.46 1 9.28 9.28 0 0 0-.14 1.9 9 9 0 0 0 .14 1.85 3.13 3.13 0 0 0 .46 1 3 3 0 0 0 .82.62 2.49 2.49 0 0 0 1.15.26 2.41 2.41 0 0 0 1.17-.26 2.27 2.27 0 0 0 .8-.62 2.41 2.41 0 0 0 .48-1 10 10 0 0 0 .12-1.85zm13.07-11h2.59v11a3.53 3.53 0 0 0 1 2.66 3.34 3.34 0 0 0 2.47 1 3.44 3.44 0 0 0 2.5-1 3.56 3.56 0 0 0 1-2.66V24h2.59v11.3a5.72 5.72 0 0 1-1.74 4.28 6.45 6.45 0 0 1-8.62 0 5.57 5.57 0 0 1-1.78-4.28zm20.62 14.89a3.18 3.18 0 0 0 1.72-.41 1.26 1.26 0 0 0 .67-1.15 1 1 0 0 0-.4-.91 2 2 0 0 0-1.09-.29l-2.15-.19a4.1 4.1 0 0 1-2.5-1 3.14 3.14 0 0 1-1-2.43 3.3 3.3 0 0 1 1.33-2.81 5.27 5.27 0 0 1 3.21-.94 9.81 9.81 0 0 1 1.51.11 7.88 7.88 0 0 1 1.25.33 7.06 7.06 0 0 1 2 1.23l-1.51 1.77a7.58 7.58 0 0 0-1.49-.84 5.15 5.15 0 0 0-1.78-.29 2.46 2.46 0 0 0-1.61.41 1.34 1.34 0 0 0-.48 1.06.85.85 0 0 0 .36.71 2.16 2.16 0 0 0 1.25.44l2 .15a3.71 3.71 0 0 1 2.76 1.16 3.81 3.81 0 0 1 .79 2.49 3.18 3.18 0 0 1-1.44 2.73 6.28 6.28 0 0 1-3.6 1A7.72 7.72 0 0 1 98.21 39l1.71-1.68a5.06 5.06 0 0 0 3.84 1.57zm10.36-3a2.83 2.83 0 0 0 .85 2.23 2.78 2.78 0 0 0 2.06.77 3.64 3.64 0 0 0 2.66-1.18l1.77 1.51a5.71 5.71 0 0 1-4.38 2 6.3 6.3 0 0 1-1.88-.28 4.73 4.73 0 0 1-.89-.41 4.26 4.26 0 0 1-.85-.55 4.79 4.79 0 0 1-1.26-1.9 7.52 7.52 0 0 1-.53-3 8.6 8.6 0 0 1 .46-3 5.41 5.41 0 0 1 1.17-1.92 4.37 4.37 0 0 1 1.63-1 5.29 5.29 0 0 1 1.76-.32 5.12 5.12 0 0 1 3.53 1.37 5.06 5.06 0 0 1 1.49 3.78v2zm5.14-2a3.14 3.14 0 0 0-.77-2.15 2.45 2.45 0 0 0-1.8-.69 2.49 2.49 0 0 0-1.81.69 3.28 3.28 0 0 0-.76 2.15z" fill="#e50012"/></g></g></svg>