<svg xmlns="http://www.w3.org/2000/svg" viewBox="0 0 36.18 171.72"><g data-name="レイヤー 2"><path d="M21.65 0v7.73a13 13 0 0 1-.23 2.44 6.69 6.69 0 0 1-1.26 2.37 5.24 5.24 0 0 1-2.05 1.64 6.63 6.63 0 0 1-3 .66 6.5 6.5 0 0 1-4.32-1.67 6.3 6.3 0 0 1-2.11-5V3.24H.29V0zm-10 3.24V8a3.43 3.43 0 0 0 1.11 2.71 3.67 3.67 0 0 0 2.35.86 4.22 4.22 0 0 0 1.8-.35 2.71 2.71 0 0 0 1-1 4 4 0 0 0 .6-2.31V3.24zM7.91 18.26a13.43 13.43 0 0 1 3.69.39 5.53 5.53 0 0 1 2.13 1.26 5.9 5.9 0 0 1 1.36 1.76 6.53 6.53 0 0 1 .6 2.86 6.63 6.63 0 0 1-.6 2.91 5.59 5.59 0 0 1-1.36 1.7 4.75 4.75 0 0 1-2.13 1.29 14.42 14.42 0 0 1-3.69.37 14.05 14.05 0 0 1-3.66-.37 5.09 5.09 0 0 1-2.18-1.29 3.87 3.87 0 0 1-.66-.72 3.07 3.07 0 0 1-.63-1 6.08 6.08 0 0 1-.66-2.91 6 6 0 0 1 .66-2.86 5.78 5.78 0 0 1 1.29-1.76 6 6 0 0 1 2.18-1.26 13.09 13.09 0 0 1 3.66-.37zm0 9.48a13.28 13.28 0 0 0 2.37-.15 2.84 2.84 0 0 0 1.26-.6 2.26 2.26 0 0 0 .81-1 3.37 3.37 0 0 0 .31-1.46 3.44 3.44 0 0 0-.31-1.44 2.65 2.65 0 0 0-.81-1 3.3 3.3 0 0 0-1.26-.57 10.91 10.91 0 0 0-2.34-.18 10.59 10.59 0 0 0-2.31.18 3.58 3.58 0 0 0-1.32.57 3.62 3.62 0 0 0-.78 1 3.3 3.3 0 0 0-.32 1.44A3.23 3.23 0 0 0 3.5 26a2.93 2.93 0 0 0 .78 1 3.07 3.07 0 0 0 1.32.6 12.43 12.43 0 0 0 2.28.14zm12.22 7.94v3.06H15.5V41h-2.33v-2.26H4.31c-.77 0-1.15.34-1.13 1.09V41H.29v-1.6a3.59 3.59 0 0 1 1-2.63A3.49 3.49 0 0 1 4 35.68h9.13v-1.52h2.37v1.52zM6.74 47.65A3.56 3.56 0 0 0 4 48.71a3.48 3.48 0 0 0-1 2.58 4.53 4.53 0 0 0 1.48 3.32l-1.9 2.21a7.15 7.15 0 0 1-2.46-5.47A7.73 7.73 0 0 1 .47 49 6.15 6.15 0 0 1 1 47.89a5.75 5.75 0 0 1 .69-1.07A6 6 0 0 1 4 45.25a9.37 9.37 0 0 1 3.81-.66 10.57 10.57 0 0 1 3.75.57A6.37 6.37 0 0 1 14 46.63a5.28 5.28 0 0 1 1.29 2A6.41 6.41 0 0 1 14 55.27a6.22 6.22 0 0 1-4.71 1.86H6.74zm2.52 6.42a3.9 3.9 0 0 0 2.68-1 3.12 3.12 0 0 0 .86-2.26 3.08 3.08 0 0 0-.86-2.25 4.06 4.06 0 0 0-2.68-1zm6.24 7.77v3.06h-1.61v.1a4.91 4.91 0 0 1 1.8 4 5.25 5.25 0 0 1-1.33 3.45 5.16 5.16 0 0 1-4 1.63H.29v-3.14h9.06a3.29 3.29 0 0 0 2.43-.85 3.17 3.17 0 0 0 0-4.32 3.22 3.22 0 0 0-2.43-.87H.29v-3.06zm4.63 17.79v3.06H15.5v2.23h-2.33v-2.23H4.31c-.77 0-1.15.34-1.13 1.08v1.15H.29v-1.6a3.63 3.63 0 0 1 1-2.64A3.51 3.51 0 0 1 4 79.63h9.13v-1.52h2.37v1.52zm-4.63 9.75v3.06H.29v-3.06zm6.15 0v3.06h-3.06v-3.06zM1.64 106a2.56 2.56 0 0 1-1.14-1.41 6.18 6.18 0 0 1-.38-2.43 5.6 5.6 0 0 1 1.34-3.93 4.21 4.21 0 0 1 3.3-1.45A4.31 4.31 0 0 1 7.94 98a5 5 0 0 1 1.32 3.69V106h1.59q2 0 2-3.12a5.75 5.75 0 0 0-.23-1.8 2.2 2.2 0 0 0-.94-1.08l1.83-2.4a5.9 5.9 0 0 1 2.23 5.14 8.08 8.08 0 0 1-1.09 4.58 4.43 4.43 0 0 1-3.97 1.68H.29v-3zm5.1 0v-3.7c0-1.78-.65-2.65-1.83-2.63a1.61 1.61 0 0 0-1.32.68 3.22 3.22 0 0 0-.6 2.19 5.39 5.39 0 0 0 .45 2.71c.32.47 1.06.71 2.2.71zm14.91 8.48v3.06H4.22c-.69 0-1 .38-1 1.14v1.06H.29v-1.36a4.38 4.38 0 0 1 .84-2.76A3.32 3.32 0 0 1 4 114.48zM26 132.33a9.63 9.63 0 0 1 7.59 3.15 10 10 0 0 1 2.64 6.94 10.1 10.1 0 0 1-2.64 7.05q-2.66 3-7.59 3.05H10.25a9.9 9.9 0 0 1-7.56-3.05A10.28 10.28 0 0 1 0 142.42a10.15 10.15 0 0 1 2.69-6.94 9.59 9.59 0 0 1 7.56-3.15zm-.32 15.09c3.57-.1 5.38-1.76 5.45-5s-1.88-4.92-5.45-5H10.55q-5.4.09-5.45 5c0 3.24 1.85 4.9 5.45 5zm1.1 14.15h5.42l3.69 5.05v5.1H.29v-5.1h30.2z" fill="#fff" data-name="レイヤー 1"/></g></svg>