<svg xmlns="http://www.w3.org/2000/svg" viewBox="0 0 159.67 56.95"><g data-name="レイヤー 2"><g data-name="レイヤー 1"><path d="M143.42 14.57V5.9l8.09-5.9h8.16v57h-8.16V8.63z" fill="#fffdec"/><path d="M9.35 33.12H2.59v7.46H0V23.5h2.59v7.32h6.76V23.5h2.59v17.08H9.35zm6.58 1.37a10.69 10.69 0 0 1 .32-3 4.26 4.26 0 0 1 1-1.7 4.77 4.77 0 0 1 1.41-1.08 5.18 5.18 0 0 1 2.34-.45 5.3 5.3 0 0 1 2.33.49 4.5 4.5 0 0 1 1.36 1.08 4 4 0 0 1 1 1.7 11.76 11.76 0 0 1 .29 3 11.39 11.39 0 0 1-.29 2.93 4.27 4.27 0 0 1-1 1.74 3.77 3.77 0 0 1-.58.53 2.5 2.5 0 0 1-.78.5 4.78 4.78 0 0 1-2.33.53 4.67 4.67 0 0 1-2.29-.53 4.52 4.52 0 0 1-2.41-2.77 10.35 10.35 0 0 1-.37-2.97zm7.58 0a10.69 10.69 0 0 0-.12-1.9 2.11 2.11 0 0 0-.48-1 1.82 1.82 0 0 0-.79-.64 2.82 2.82 0 0 0-2.32 0 2.19 2.19 0 0 0-.82.64 2.83 2.83 0 0 0-.46 1 9.35 9.35 0 0 0-.14 1.88 9 9 0 0 0 .14 1.85 3 3 0 0 0 .46 1 2.81 2.81 0 0 0 .82.62 2.72 2.72 0 0 0 2.32 0 2.23 2.23 0 0 0 .79-.62 2.2 2.2 0 0 0 .48-1 10 10 0 0 0 .12-1.81zm13.32-2.43l-2.54 8.52h-2.21l-3.89-12.16h2.59l2.33 8.52 2.77-8.52h1.82l2.76 8.52 2.32-8.52h2.59l-3.83 12.16h-2.17zm18.52-7.35h2.45v3.71h1.78v1.86H57.8v7.09q0 .93.87.9h.91v2.31h-1.27a2.86 2.86 0 0 1-2.11-.8 2.78 2.78 0 0 1-.85-2.2v-7.3h-1.22v-1.86h1.22zm7.13 9.78a10.69 10.69 0 0 1 .32-3 4.4 4.4 0 0 1 1-1.7 4.59 4.59 0 0 1 1.4-1.08 5.21 5.21 0 0 1 2.29-.49 5.27 5.27 0 0 1 2.33.49 4.38 4.38 0 0 1 1.36 1.08 3.81 3.81 0 0 1 1 1.7 11.23 11.23 0 0 1 .3 3 10.88 10.88 0 0 1-.3 2.93 4.06 4.06 0 0 1-1 1.74 3.68 3.68 0 0 1-.57.53 2.67 2.67 0 0 1-.79.5 4.75 4.75 0 0 1-2.33.53 4.7 4.7 0 0 1-2.29-.53 4.35 4.35 0 0 1-1.4-1 4.72 4.72 0 0 1-1-1.74 10.35 10.35 0 0 1-.32-2.96zm7.59 0a10.69 10.69 0 0 0-.12-1.9 2.31 2.31 0 0 0-.48-1 1.85 1.85 0 0 0-.8-.64 2.66 2.66 0 0 0-1.17-.25 2.76 2.76 0 0 0-1.15.25 2.28 2.28 0 0 0-.82.64 3 3 0 0 0-.46 1 9.35 9.35 0 0 0-.14 1.88 9 9 0 0 0 .14 1.85 3.13 3.13 0 0 0 .46 1 3 3 0 0 0 .82.62 2.49 2.49 0 0 0 1.15.26 2.41 2.41 0 0 0 1.17-.2 2.27 2.27 0 0 0 .8-.62 2.41 2.41 0 0 0 .48-1 10 10 0 0 0 .12-1.87zM83.14 23.5h2.59v11a3.53 3.53 0 0 0 1 2.66 3.34 3.34 0 0 0 2.47 1 3.44 3.44 0 0 0 2.5-1 3.56 3.56 0 0 0 1-2.66v-11h2.59v11.29a5.72 5.72 0 0 1-1.74 4.28 6.45 6.45 0 0 1-8.62 0 5.57 5.57 0 0 1-1.78-4.28zm20.62 14.92a3.18 3.18 0 0 0 1.72-.41 1.26 1.26 0 0 0 .67-1.14 1 1 0 0 0-.4-.92 2 2 0 0 0-1.09-.29l-2.15-.19a4.1 4.1 0 0 1-2.5-1A3.14 3.14 0 0 1 99 32a3.3 3.3 0 0 1 1.33-2.81 5.27 5.27 0 0 1 3.21-.94 9.81 9.81 0 0 1 1.51.11 7.88 7.88 0 0 1 1.25.33 7.06 7.06 0 0 1 2 1.23l-1.51 1.77a7.06 7.06 0 0 0-1.49-.83 4.92 4.92 0 0 0-1.78-.3 2.46 2.46 0 0 0-1.61.41 1.34 1.34 0 0 0-.48 1.06.85.85 0 0 0 .36.71 2.16 2.16 0 0 0 1.25.44l2 .15a3.75 3.75 0 0 1 2.74 1.15 3.83 3.83 0 0 1 .82 2.52 3.18 3.18 0 0 1-1.44 2.73 6.2 6.2 0 0 1-3.6 1 7.68 7.68 0 0 1-5.35-2.18l1.71-1.67a5.06 5.06 0 0 0 3.84 1.54zm10.36-3a2.83 2.83 0 0 0 .85 2.23 2.78 2.78 0 0 0 2.06.77 3.64 3.64 0 0 0 2.66-1.18l1.77 1.51a5.71 5.71 0 0 1-4.38 2 6.3 6.3 0 0 1-1.88-.28 4.73 4.73 0 0 1-.89-.41 4.26 4.26 0 0 1-.85-.55 4.79 4.79 0 0 1-1.26-1.9 7.52 7.52 0 0 1-.53-3 8.6 8.6 0 0 1 .46-3 5.41 5.41 0 0 1 1.17-1.92 4.5 4.5 0 0 1 1.63-1 5.29 5.29 0 0 1 1.76-.32 5.09 5.09 0 0 1 3.53 1.38 5 5 0 0 1 1.49 3.77v2zm5.14-2a3.14 3.14 0 0 0-.77-2.15 2.45 2.45 0 0 0-1.8-.69 2.49 2.49 0 0 0-1.81.69 3.28 3.28 0 0 0-.76 2.15z" fill="#e50012"/></g></g></svg>