<svg xmlns="http://www.w3.org/2000/svg" viewBox="0 0 110 110"><g data-name="レイヤー 2"><g data-name="レイヤー 1"><circle cx="55" cy="55" r="53" fill="#fff"/><path d="M55 4A51 51 0 1 1 4 55 51.06 51.06 0 0 1 55 4m0-4a55 55 0 1 0 55 55A55 55 0 0 0 55 0z" fill="#e70013"/><path d="M35.46 42.64c1.88 0 2.83-.69 2.86-2 0-1.08-.61-1.73-1.88-1.94l-1.92-.27A4.75 4.75 0 0 1 31.69 37a3.83 3.83 0 0 1-1-2.68 3.94 3.94 0 0 1 1.25-3.05 4.9 4.9 0 0 1 3.46-1.17 8.15 8.15 0 0 1 4.7 1.5l-1.22 1.8a6.71 6.71 0 0 0-3.58-1.11 2.72 2.72 0 0 0-1.69.51 1.86 1.86 0 0 0-.72 1.56 1.58 1.58 0 0 0 .48 1.13 2.84 2.84 0 0 0 1.56.72c.4.06.94.14 1.63.22a4.56 4.56 0 0 1 3 1.46 4.11 4.11 0 0 1 1 2.7q-.1 4.14-5.08 4.2a8.2 8.2 0 0 1-5.52-2l1.44-1.64a6.35 6.35 0 0 0 4.06 1.49zm11.85-10.43h-4v-1.95h10.16v1.95h-4v12.5h-2.2zm9.74-1.95h9.23v2.07h-7v4.13h6v1.94h-6v4.24h7v2.07h-9.23zm13.32 0h5.24a7.93 7.93 0 0 1 1.64.16 4.27 4.27 0 0 1 1.61.85A3.4 3.4 0 0 1 80 32.66a4.44 4.44 0 0 1 .45 2.06 4.38 4.38 0 0 1-1.13 2.92 4.26 4.26 0 0 1-3.39 1.43h-3.37v5.64h-2.19zM72.56 37h3.25a2.29 2.29 0 0 0 1.83-.75 2.47 2.47 0 0 0 .59-1.59 2.79 2.79 0 0 0-.23-1.22 1.81 1.81 0 0 0-.7-.7 2.72 2.72 0 0 0-1.56-.41h-3.18zm-38.1 23.51a8.08 8.08 0 0 1 2.66-6.42A8.43 8.43 0 0 1 43 51.86a8.56 8.56 0 0 1 6 2.23 8.4 8.4 0 0 1 2.58 6.42V73.8A8.37 8.37 0 0 1 49 80.2a8.68 8.68 0 0 1-6 2.27 8.56 8.56 0 0 1-5.87-2.27 8 8 0 0 1-2.66-6.4zm12.76.27c-.08-3-1.49-4.55-4.23-4.6s-4.16 1.59-4.22 4.6v12.77c.06 3 1.46 4.58 4.22 4.61s4.15-1.57 4.23-4.61zm25.86-8.98a2 2 0 0 1-.19.44l-.59 1.21-.87 1.76-1 2.08-1.16 2.21c-.38.75-.74 1.46-1.09 2.13l-1 1.84c-.29.55-.53 1-.73 1.32a3.34 3.34 0 0 1 1.36-.42 12.16 12.16 0 0 1 1.74 0 6.73 6.73 0 0 1 2.49.49A6.45 6.45 0 0 1 73.91 66a6.54 6.54 0 0 1 1.27 1.52 9.42 9.42 0 0 1 .8 1.63 8.75 8.75 0 0 1 .4 1.49 7.8 7.8 0 0 1 .11 1.08v2.71c0 .2-.06.34-.13.75a10.26 10.26 0 0 1-.42 1.45 11.37 11.37 0 0 1-.85 1.79 8.22 8.22 0 0 1-1.47 1.82 8.54 8.54 0 0 1-2.21 1.48 8.77 8.77 0 0 1-3.1.76 9.35 9.35 0 0 1-3.33-.24A8.14 8.14 0 0 1 62.44 81a7.53 7.53 0 0 1-1.75-1.77 9.56 9.56 0 0 1-1.11-2.05 9.84 9.84 0 0 1-.53-2 6.29 6.29 0 0 1 0-1.65c.08-.68.17-1.28.26-1.81s.21-1 .34-1.52.28-1 .45-1.42.36-1 .58-1.53c0-.14.2-.47.45-1l.87-1.89 1.23-2.5c.45-.91.91-1.83 1.36-2.77 1.08-2.18 2.28-4.61 3.62-7.29zm-.86 22c0-.52 0-1.1-.07-1.74a4.88 4.88 0 0 0-.46-1.8 3.68 3.68 0 0 0-1.31-1.48 5.3 5.3 0 0 0-2.58-.74 3.32 3.32 0 0 0-1.43.16 3.91 3.91 0 0 0-1.14.62 4.27 4.27 0 0 0-.85.9 7.15 7.15 0 0 0-.6 1 4.78 4.78 0 0 0-.34.92 3 3 0 0 0-.11.65v1.15a9 9 0 0 0 .14 1.26 4.93 4.93 0 0 0 .4 1.3 3.21 3.21 0 0 0 .76 1 4 4 0 0 0 1.28.74 5.37 5.37 0 0 0 1.93.29 4.14 4.14 0 0 0 2.8-.9 3.55 3.55 0 0 0 .79-.9 5.2 5.2 0 0 0 .49-1 5 5 0 0 0 .23-.85 3.26 3.26 0 0 0 .07-.54z" fill="#e50012"/></g></g></svg>