<svg xmlns="http://www.w3.org/2000/svg" viewBox="0 0 173.38 57.89"><g data-name="レイヤー 2"><g data-name="レイヤー 1"><path d="M0 40.78A14.86 14.86 0 0 1 6.72 28a16.91 16.91 0 0 1-4-5.12 11.86 11.86 0 0 1-1.68-6.4A16.11 16.11 0 0 1 5.86 4.69 15.53 15.53 0 0 1 17.34 0 15.92 15.92 0 0 1 29 4.69a16.34 16.34 0 0 1 4.65 11.76 12.87 12.87 0 0 1-1.52 6.4A19.19 19.19 0 0 1 28 28a14.9 14.9 0 0 1 6.72 12.81q-.09 7.69-5 12.31a17.67 17.67 0 0 1-12.35 4.8A17 17 0 0 1 5.2 53.09Q.07 48.47 0 40.78zm8.16-.08A8.55 8.55 0 0 0 11 47.11a8.66 8.66 0 0 0 6.36 2.62 8.85 8.85 0 0 0 6.49-2.62 8.66 8.66 0 0 0 2.73-6.41 8.75 8.75 0 0 0-2.73-6.48 9.41 9.41 0 0 0-6.49-2.54A9.22 9.22 0 0 0 11 34.22a8.64 8.64 0 0 0-2.84 6.48zm1.06-24.41a7.61 7.61 0 0 0 2.54 6 8.11 8.11 0 0 0 5.58 2.15 8.3 8.3 0 0 0 5.71-2.15 7.76 7.76 0 0 0 2.46-6 7.91 7.91 0 0 0-2.46-6.13 8.72 8.72 0 0 0-5.71-2 8.51 8.51 0 0 0-5.58 2 7.76 7.76 0 0 0-2.54 6.13z" fill="#fffdec"/><path d="M61 33.58h-6.73v7.47h-2.59V24h2.59v7.33H61V24h2.59v17.05H61zM67.61 35a10.71 10.71 0 0 1 .31-3 4.33 4.33 0 0 1 1-1.7 4.78 4.78 0 0 1 1.41-1.09 5.28 5.28 0 0 1 2.28-.48 5.51 5.51 0 0 1 2.34.48 4.47 4.47 0 0 1 1.35 1.09 3.86 3.86 0 0 1 1 1.7 11.7 11.7 0 0 1 .29 3 11.44 11.44 0 0 1-.29 2.93 4.18 4.18 0 0 1-1 1.74 3.27 3.27 0 0 1-.57.53 2.69 2.69 0 0 1-.78.5 4.94 4.94 0 0 1-2.34.53 4.74 4.74 0 0 1-2.28-.53 4.57 4.57 0 0 1-2.42-2.77 10.47 10.47 0 0 1-.3-2.93zm7.58 0a10.69 10.69 0 0 0-.12-1.9 2.31 2.31 0 0 0-.48-1 1.76 1.76 0 0 0-.79-.64 2.82 2.82 0 0 0-2.32 0 2.21 2.21 0 0 0-.83.64 2.81 2.81 0 0 0-.45 1 8.59 8.59 0 0 0-.14 1.9 8.34 8.34 0 0 0 .14 1.85 2.93 2.93 0 0 0 .45 1 3 3 0 0 0 .83.62 2.45 2.45 0 0 0 1.14.26 2.47 2.47 0 0 0 1.18-.26 2.23 2.23 0 0 0 .79-.62 2.41 2.41 0 0 0 .48-1 10 10 0 0 0 .12-1.85zm13.32-2.47h-.05l-2.54 8.52h-2.16l-3.89-12.16h2.59l2.33 8.52 2.76-8.52h1.77l2.77 8.52 2.32-8.52h2.69l-3.88 12.16h-2.17zM107 25.18h2.45v3.71h1.78v1.86h-1.78v7.09c0 .62.27.92.87.9h.91v2.31H110a2.89 2.89 0 0 1-2.1-.8 2.78 2.78 0 0 1-.85-2.2v-7.3h-1.22v-1.86H107zm7.16 9.82a10.64 10.64 0 0 1 .32-3 4.21 4.21 0 0 1 1-1.7 4.6 4.6 0 0 1 1.4-1.09 5.37 5.37 0 0 1 2.29-.48 5.42 5.42 0 0 1 2.33.48 4.4 4.4 0 0 1 1.36 1.09 3.85 3.85 0 0 1 1 1.7 11.26 11.26 0 0 1 .29 3 11 11 0 0 1-.29 2.93 4.16 4.16 0 0 1-1 1.74 3.77 3.77 0 0 1-.58.53 2.69 2.69 0 0 1-.78.5 4.86 4.86 0 0 1-2.33.53 4.81 4.81 0 0 1-2.29-.53 4.5 4.5 0 0 1-1.4-1 4.58 4.58 0 0 1-1-1.74 10.4 10.4 0 0 1-.32-2.96zm7.58 0a12 12 0 0 0-.11-1.9 2.31 2.31 0 0 0-.48-1 1.78 1.78 0 0 0-.8-.64 2.82 2.82 0 0 0-2.32 0 2.1 2.1 0 0 0-.82.64 3 3 0 0 0-.46 1 9.28 9.28 0 0 0-.14 1.88 9 9 0 0 0 .14 1.85 3.13 3.13 0 0 0 .46 1 2.81 2.81 0 0 0 .82.62 2.72 2.72 0 0 0 2.32 0 2.27 2.27 0 0 0 .8-.62 2.41 2.41 0 0 0 .48-1 11.29 11.29 0 0 0 .11-1.83zm13.08-11h2.59v11a3.49 3.49 0 0 0 1 2.66 3.34 3.34 0 0 0 2.47 1 3.44 3.44 0 0 0 2.5-1 3.59 3.59 0 0 0 1-2.66V24H147v11.3a5.69 5.69 0 0 1-1.75 4.28 6.44 6.44 0 0 1-8.61 0 5.53 5.53 0 0 1-1.78-4.28zm20.62 14.89a3.2 3.2 0 0 0 1.72-.41 1.26 1.26 0 0 0 .67-1.15 1 1 0 0 0-.4-.91 2 2 0 0 0-1.09-.29l-2.16-.19a4.09 4.09 0 0 1-2.49-1 3.14 3.14 0 0 1-1-2.43 3.32 3.32 0 0 1 1.31-2.84 5.31 5.31 0 0 1 3.21-.94 9.85 9.85 0 0 1 1.52.11 7.88 7.88 0 0 1 1.25.33 7.06 7.06 0 0 1 2 1.23l-1.52 1.77a7.23 7.23 0 0 0-1.48-.84 5.17 5.17 0 0 0-1.79-.29 2.42 2.42 0 0 0-1.6.41 1.34 1.34 0 0 0-.48 1.06.8.8 0 0 0 .36.71 2.15 2.15 0 0 0 1.24.44l2 .15a3.71 3.71 0 0 1 2.78 1.19 3.81 3.81 0 0 1 .79 2.49 3.18 3.18 0 0 1-1.44 2.73 6.28 6.28 0 0 1-3.6 1 7.75 7.75 0 0 1-5.36-2.22l1.71-1.68a5.1 5.1 0 0 0 3.85 1.57zm10.36-3a2.83 2.83 0 0 0 .85 2.23 2.78 2.78 0 0 0 2.06.77 3.64 3.64 0 0 0 2.66-1.18l1.77 1.51a5.73 5.73 0 0 1-4.39 2 6.23 6.23 0 0 1-1.87-.28 4.46 4.46 0 0 1-.89-.41 4.33 4.33 0 0 1-.86-.55 4.88 4.88 0 0 1-1.25-1.9 7.52 7.52 0 0 1-.53-3 8.37 8.37 0 0 1 .46-3 5.14 5.14 0 0 1 1.19-2 4.37 4.37 0 0 1 1.63-1 5.24 5.24 0 0 1 1.76-.32 5.14 5.14 0 0 1 3.53 1.37 5 5 0 0 1 1.48 3.78v2zm5.13-2a3.09 3.09 0 0 0-.76-2.15 2.71 2.71 0 0 0-3.61 0 3.28 3.28 0 0 0-.76 2.15z" fill="#e50012"/></g></g></svg>