<svg xmlns="http://www.w3.org/2000/svg" viewBox="0 0 170.98 57.28"><g data-name="レイヤー 2"><g data-name="レイヤー 1"><path d="M144.44 57.28a11.77 11.77 0 0 1 .66-1.43c.47-1 1.08-2.18 1.84-3.69s1.6-3.19 2.54-5 1.86-3.67 2.77-5.47 1.76-3.45 2.56-5 1.44-2.69 1.93-3.55a6.16 6.16 0 0 1-2.56.8 24.88 24.88 0 0 1-3.3.06 11.94 11.94 0 0 1-4.51-.94 12.24 12.24 0 0 1-5.68-5 19.39 19.39 0 0 1-1.51-3.06 18.45 18.45 0 0 1-.82-2.82 11.27 11.27 0 0 1-.25-2.05v-3.79a9.37 9.37 0 0 1 .1-1.32c0-.19.11-.65.25-1.39a16.83 16.83 0 0 1 .8-2.68 21.73 21.73 0 0 1 1.64-3.34 14.94 14.94 0 0 1 2.76-3.34 15.59 15.59 0 0 1 4.18-2.69A19.95 19.95 0 0 1 160 .52a14.47 14.47 0 0 1 4.67 2.15A13.49 13.49 0 0 1 167.88 6a18.4 18.4 0 0 1 2 3.81 16.65 16.65 0 0 1 1 3.75 12.32 12.32 0 0 1 .08 3.11c-.15 1.27-.32 2.41-.51 3.41s-.39 2-.64 2.87-.53 1.82-.84 2.7-.68 1.85-1.09 2.89c-.11.29-.39.91-.84 1.88s-1 2.14-1.72 3.53-1.45 2.94-2.27 4.65-1.66 3.42-2.52 5.14q-3 6.09-6.72 13.59zM146.2 16q0 1.53.15 3.36a10.19 10.19 0 0 0 .92 3.46 7.1 7.1 0 0 0 2.4 2.77 8.82 8.82 0 0 0 4.61 1.31 6.73 6.73 0 0 0 2.7-.37 7.93 7.93 0 0 0 2.14-1.19 8.92 8.92 0 0 0 1.63-1.68 13.41 13.41 0 0 0 1.13-1.86 8.63 8.63 0 0 0 .64-1.7 5.53 5.53 0 0 0 .2-1.25q0-1-.06-2.19a16.21 16.21 0 0 0-.23-2.46 10.57 10.57 0 0 0-.73-2.4 6 6 0 0 0-1.44-2 6.78 6.78 0 0 0-2.4-1.35 10.11 10.11 0 0 0-3.66-.37 7.34 7.34 0 0 0-4 1.21 9.68 9.68 0 0 0-2.44 2.42 9 9 0 0 0-1.25 2.58 7.49 7.49 0 0 0-.31 1.71z" fill="#fffdec"/><path d="M9.35 33.44H2.59v7.47H0V23.82h2.59v7.33h6.76v-7.33h2.59v17.09H9.35zm6.58 1.37a10.61 10.61 0 0 1 .32-3 4.19 4.19 0 0 1 1-1.7 4.78 4.78 0 0 1 1.41-1.09 5.33 5.33 0 0 1 2.34-.43 5.46 5.46 0 0 1 2.33.48 4.52 4.52 0 0 1 1.36 1.09 3.94 3.94 0 0 1 1 1.7 11.67 11.67 0 0 1 .29 3 11.33 11.33 0 0 1-.29 2.93 4.24 4.24 0 0 1-1 1.75 3.77 3.77 0 0 1-.58.53 2.69 2.69 0 0 1-.78.5 4.89 4.89 0 0 1-2.33.53 4.78 4.78 0 0 1-2.29-.53 4.68 4.68 0 0 1-1.41-1 4.53 4.53 0 0 1-1-1.75 10.3 10.3 0 0 1-.37-3.01zm7.58 0a10.69 10.69 0 0 0-.12-1.9 2.11 2.11 0 0 0-.48-1 1.76 1.76 0 0 0-.79-.64 2.82 2.82 0 0 0-2.32 0 2.1 2.1 0 0 0-.82.64 2.83 2.83 0 0 0-.46 1 9.23 9.23 0 0 0-.14 1.87 9.12 9.12 0 0 0 .14 1.86 3 3 0 0 0 .46 1 3 3 0 0 0 .82.62 2.72 2.72 0 0 0 2.32 0 2.34 2.34 0 0 0 .79-.62 2.25 2.25 0 0 0 .48-1 10.09 10.09 0 0 0 .12-1.8zm13.32-2.42l-2.54 8.52h-2.21l-3.89-12.17h2.59l2.33 8.52 2.77-8.52h1.82l2.76 8.52 2.32-8.52h2.59l-3.83 12.17h-2.17zM55.35 25h2.45v3.7h1.78v1.87H57.8v7.13q0 .91.87.9h.91v2.31h-1.27a2.9 2.9 0 0 1-2.11-.8 2.79 2.79 0 0 1-.85-2.2v-7.3h-1.22v-1.87h1.22zm7.13 9.81a10.61 10.61 0 0 1 .32-3 4.33 4.33 0 0 1 1-1.7 4.6 4.6 0 0 1 1.4-1.09 5.37 5.37 0 0 1 2.29-.48 5.42 5.42 0 0 1 2.33.48 4.4 4.4 0 0 1 1.36 1.09 3.76 3.76 0 0 1 1 1.7 11.15 11.15 0 0 1 .3 3 10.83 10.83 0 0 1-.3 2.93 4 4 0 0 1-1 1.75 3.68 3.68 0 0 1-.57.53 2.89 2.89 0 0 1-.79.5 4.86 4.86 0 0 1-2.33.53 4.81 4.81 0 0 1-2.29-.53 4.5 4.5 0 0 1-1.4-1 4.68 4.68 0 0 1-1-1.75 10.3 10.3 0 0 1-.32-2.96zm7.59 0a10.69 10.69 0 0 0-.12-1.9 2.31 2.31 0 0 0-.48-1 1.78 1.78 0 0 0-.8-.64A2.52 2.52 0 0 0 67.5 31a2.61 2.61 0 0 0-1.15.25 2.17 2.17 0 0 0-.82.64 3 3 0 0 0-.46 1 9.23 9.23 0 0 0-.14 1.87 9.12 9.12 0 0 0 .14 1.86 3.22 3.22 0 0 0 .46 1 3.15 3.15 0 0 0 .82.62 2.62 2.62 0 0 0 1.15.26 2.52 2.52 0 0 0 1.17-.26 2.39 2.39 0 0 0 .8-.62 2.46 2.46 0 0 0 .48-1 10.09 10.09 0 0 0 .12-1.78zm13.07-10.99h2.59v11a3.53 3.53 0 0 0 1 2.66 3.34 3.34 0 0 0 2.47 1 3.44 3.44 0 0 0 2.5-1 3.56 3.56 0 0 0 1-2.66v-11h2.59v11.3a5.72 5.72 0 0 1-1.74 4.28 6.45 6.45 0 0 1-8.62 0 5.57 5.57 0 0 1-1.78-4.28zm20.62 14.93a3.27 3.27 0 0 0 1.72-.41 1.26 1.26 0 0 0 .67-1.15 1 1 0 0 0-.4-.91 2 2 0 0 0-1.09-.29l-2.15-.19a4.15 4.15 0 0 1-2.5-1 3.14 3.14 0 0 1-1-2.43 3.29 3.29 0 0 1 1.33-2.81 5.2 5.2 0 0 1 3.21-.94 9.81 9.81 0 0 1 1.51.11 6.93 6.93 0 0 1 1.25.32 7.32 7.32 0 0 1 2 1.24l-1.5 1.71a8.07 8.07 0 0 0-1.49-.83 5.15 5.15 0 0 0-1.78-.29 2.46 2.46 0 0 0-1.61.41 1.32 1.32 0 0 0-.48 1.05.85.85 0 0 0 .36.72 2.1 2.1 0 0 0 1.25.43l2 .16a3.74 3.74 0 0 1 2.74 1.14 3.86 3.86 0 0 1 .79 2.5 3.18 3.18 0 0 1-1.43 2.71 6.28 6.28 0 0 1-3.6 1 7.72 7.72 0 0 1-5.35-2.18l1.71-1.68a5.06 5.06 0 0 0 3.84 1.61zm10.36-3a2.78 2.78 0 0 0 2.91 3 3.64 3.64 0 0 0 2.66-1.18l1.77 1.51a5.74 5.74 0 0 1-4.38 2 6.63 6.63 0 0 1-1.88-.28 7 7 0 0 1-1.74-1 4.86 4.86 0 0 1-1.26-1.9 7.52 7.52 0 0 1-.53-3 8.6 8.6 0 0 1 .46-3 5.41 5.41 0 0 1 1.17-1.92 4.37 4.37 0 0 1 1.63-1 5.29 5.29 0 0 1 1.76-.32 4.89 4.89 0 0 1 5 5.15v2zm5.14-2a3.14 3.14 0 0 0-.77-2.15 2.45 2.45 0 0 0-1.8-.69 2.49 2.49 0 0 0-1.81.69 3.28 3.28 0 0 0-.76 2.15z" fill="#e50012"/></g></g></svg>