<svg xmlns="http://www.w3.org/2000/svg" viewBox="0 0 110 110"><g data-name="レイヤー 2"><g data-name="レイヤー 1"><circle cx="55" cy="55" r="53" fill="#fff"/><path d="M55 4A51 51 0 1 1 4 55 51.06 51.06 0 0 1 55 4m0-4a55 55 0 1 0 55 55A55 55 0 0 0 55 0z" fill="#e70013"/><path d="M35.46 42.64c1.88 0 2.83-.69 2.86-2 0-1.08-.61-1.73-1.88-1.94l-1.92-.27A4.75 4.75 0 0 1 31.69 37a3.83 3.83 0 0 1-1-2.68 3.94 3.94 0 0 1 1.25-3.05 4.9 4.9 0 0 1 3.46-1.17 8.15 8.15 0 0 1 4.7 1.5l-1.22 1.8a6.71 6.71 0 0 0-3.58-1.11 2.72 2.72 0 0 0-1.69.51 1.86 1.86 0 0 0-.72 1.56 1.58 1.58 0 0 0 .48 1.13 2.84 2.84 0 0 0 1.56.72c.4.06.94.14 1.63.22a4.56 4.56 0 0 1 3 1.46 4.11 4.11 0 0 1 1 2.7q-.1 4.14-5.08 4.2a8.2 8.2 0 0 1-5.52-2l1.44-1.64a6.35 6.35 0 0 0 4.06 1.49zm11.85-10.43h-4v-1.95h10.16v1.95h-4v12.5h-2.2zm9.74-1.95h9.23v2.07h-7v4.13h6v1.94h-6v4.24h7v2.07h-9.23zm13.32 0h5.24a7.93 7.93 0 0 1 1.64.16 4.27 4.27 0 0 1 1.61.85A3.4 3.4 0 0 1 80 32.66a4.44 4.44 0 0 1 .45 2.06 4.38 4.38 0 0 1-1.13 2.92 4.26 4.26 0 0 1-3.39 1.43h-3.37v5.64h-2.19zM72.56 37h3.25a2.29 2.29 0 0 0 1.83-.75 2.47 2.47 0 0 0 .59-1.59 2.79 2.79 0 0 0-.23-1.22 1.81 1.81 0 0 0-.7-.7 2.72 2.72 0 0 0-1.56-.41h-3.18zm-38.1 23.51a8.08 8.08 0 0 1 2.66-6.42A8.43 8.43 0 0 1 43 51.86a8.56 8.56 0 0 1 6 2.23 8.4 8.4 0 0 1 2.58 6.42V73.8A8.37 8.37 0 0 1 49 80.2a8.68 8.68 0 0 1-6 2.27 8.56 8.56 0 0 1-5.87-2.27 8 8 0 0 1-2.66-6.4zm12.76.27c-.08-3-1.49-4.55-4.23-4.6s-4.16 1.59-4.22 4.6v12.77c.06 3 1.46 4.58 4.22 4.61s4.15-1.57 4.23-4.61zm17.6 4.01h1.49a4.67 4.67 0 0 0 3.43-1.22A4.06 4.06 0 0 0 71 60.51a4.41 4.41 0 0 0-1.26-3.12 4.48 4.48 0 0 0-3.14-1.21 4 4 0 0 0-2.52.88 4.52 4.52 0 0 0-1.62 2.75h-4.35a8.81 8.81 0 0 1 2.7-5.64 7.91 7.91 0 0 1 5.58-2.31 8.49 8.49 0 0 1 8.88 8.57 9.13 9.13 0 0 1-.62 3.35 7 7 0 0 1-2.58 2.87 7.59 7.59 0 0 1 2.75 3 8.51 8.51 0 0 1 .8 3.64A8.83 8.83 0 0 1 73 79.93a9 9 0 0 1-6.53 2.54 8.26 8.26 0 0 1-5.45-2 9.47 9.47 0 0 1-3.08-5.74h4.32a6 6 0 0 0 1.63 2.43 4.09 4.09 0 0 0 2.85 1 4.33 4.33 0 0 0 3.2-1.31 4.58 4.58 0 0 0 1.37-3.47 4.79 4.79 0 0 0-1.37-3.55 4.64 4.64 0 0 0-3.3-1.22h-1.82z" fill="#e50012"/></g></g></svg>