<svg xmlns="http://www.w3.org/2000/svg" viewBox="0 0 91.28 129.43"><g data-name="レイヤー 2"><g data-name="レイヤー 1"><path d="M63.44 0a7.15 7.15 0 0 1-.65 1.47c-.47 1-1.12 2.31-1.95 4S59.07 9.09 58 11.28l-3.46 6.9c-1.2 2.42-2.44 4.86-3.69 7.32s-2.46 4.81-3.62 7S45 36.8 44 38.62 42.27 41.9 41.64 43a10.67 10.67 0 0 1 4.47-1.4 42.73 42.73 0 0 1 5.78-.11 22.78 22.78 0 0 1 8.24 1.64 21.53 21.53 0 0 1 10.25 8.79 30.7 30.7 0 0 1 2.62 5.4 28.06 28.06 0 0 1 1.34 4.92 23.54 23.54 0 0 1 .37 3.59v6.63c0 .91-.06 1.69-.11 2.33 0 .31-.19 1.15-.44 2.49a32.36 32.36 0 0 1-1.37 4.79A36.57 36.57 0 0 1 69.94 88a26.67 26.67 0 0 1-4.86 6 28.28 28.28 0 0 1-7.31 4.89 29.38 29.38 0 0 1-10.25 2.53 30.28 30.28 0 0 1-11-.83 26 26 0 0 1-8.27-3.89 24.8 24.8 0 0 1-5.81-5.85 31.26 31.26 0 0 1-3.66-6.8A30.49 30.49 0 0 1 17 77.38a22.09 22.09 0 0 1-.17-5.47c.28-2.23.57-4.22.89-6s.7-3.43 1.13-5 .92-3.17 1.47-4.72 1.18-3.23 1.91-5.06c.18-.45.69-1.54 1.51-3.24l3-6.33q1.82-3.75 4.07-8.27t4.51-9.16q5.32-10.8 12-24.13zm-2.87 72.94c0-1.73-.07-3.65-.2-5.74a16.47 16.47 0 0 0-1.54-6 12.33 12.33 0 0 0-4.34-4.89c-2-1.37-4.85-2.19-8.55-2.46a11.25 11.25 0 0 0-4.71.54 13.22 13.22 0 0 0-3.76 2.05 14.57 14.57 0 0 0-2.84 3 22.07 22.07 0 0 0-2 3.31 15.61 15.61 0 0 0-1.13 3 9.65 9.65 0 0 0-.32 2.25c0 1.14 0 2.4.07 3.79a28.1 28.1 0 0 0 .44 4.17A16.63 16.63 0 0 0 33 80a10.59 10.59 0 0 0 2.52 3.45 12.89 12.89 0 0 0 4.21 2.46 18.38 18.38 0 0 0 6.39 1 14.54 14.54 0 0 0 5.33-.91 13.37 13.37 0 0 0 3.89-2.19 12.7 12.7 0 0 0 2.64-3 17.77 17.77 0 0 0 1.6-3.21 15.65 15.65 0 0 0 .79-2.84 13.8 13.8 0 0 0 .2-1.82z" fill="#fbc400"/><path d="M7 123.72H1.94v5.6H0v-12.81h1.94V122H7v-5.49h2v12.81H7zm5 1.03a7.81 7.81 0 0 1 .24-2.21 3.15 3.15 0 0 1 .75-1.28 3.42 3.42 0 0 1 1.06-.82 4.1 4.1 0 0 1 1.71-.36 4.26 4.26 0 0 1 1.75.36 3.34 3.34 0 0 1 1 .82 2.88 2.88 0 0 1 .77 1.28 8.34 8.34 0 0 1 .22 2.21 8.25 8.25 0 0 1-.22 2.2 3.16 3.16 0 0 1-.77 1.31 3.34 3.34 0 0 1-.43.39 1.82 1.82 0 0 1-.59.38 3.68 3.68 0 0 1-1.75.4A3.54 3.54 0 0 1 14 129a3.36 3.36 0 0 1-1.81-2 7.73 7.73 0 0 1-.19-2.25zm5.68 0a9.53 9.53 0 0 0-.08-1.43 1.74 1.74 0 0 0-.36-.75 1.31 1.31 0 0 0-.6-.48 2.09 2.09 0 0 0-1.74 0 1.55 1.55 0 0 0-.62.48 2.14 2.14 0 0 0-.34.75 6.73 6.73 0 0 0-.11 1.41 6.51 6.51 0 0 0 .11 1.39 2.25 2.25 0 0 0 .34.79 2.35 2.35 0 0 0 .62.47 2.09 2.09 0 0 0 1.74 0 1.72 1.72 0 0 0 1-1.26 8.8 8.8 0 0 0-.01-1.35zm9.94-1.82l-1.91 6.39h-1.65l-2.92-9.12h1.95l1.75 6.39L27 120.2h1.32l2.08 6.39 1.74-6.39h1.94l-2.9 9.12h-1.65zm13.9-5.51h1.83v2.78h1.34v1.4h-1.34v5.31c0 .47.21.69.65.68h.69v1.73h-1a2.17 2.17 0 0 1-1.58-.6 2.11 2.11 0 0 1-.63-1.65v-5.47h-.88v-1.4h.92zm5.34 7.33a7.81 7.81 0 0 1 .24-2.21 3.17 3.17 0 0 1 .76-1.28 3.49 3.49 0 0 1 1-.82 4.34 4.34 0 0 1 3.46 0 3.34 3.34 0 0 1 1 .82 2.9 2.9 0 0 1 .78 1.28 8.79 8.79 0 0 1 .22 2.21 8.7 8.7 0 0 1-.22 2.2 3.18 3.18 0 0 1-.78 1.31 2.79 2.79 0 0 1-.43.39 1.82 1.82 0 0 1-.59.38 3.94 3.94 0 0 1-3.46 0 3.57 3.57 0 0 1-1-.77 3.5 3.5 0 0 1-.74-1.26 7.73 7.73 0 0 1-.24-2.25zm5.69 0a8.1 8.1 0 0 0-.09-1.43 1.74 1.74 0 0 0-.36-.75 1.22 1.22 0 0 0-.6-.48 1.87 1.87 0 0 0-.88-.19 1.93 1.93 0 0 0-.86.19 1.52 1.52 0 0 0-.61.48 2.14 2.14 0 0 0-.34.75 6.73 6.73 0 0 0-.11 1.41 6.51 6.51 0 0 0 .11 1.39 2.25 2.25 0 0 0 .34.79 2.29 2.29 0 0 0 .61.47 1.93 1.93 0 0 0 .86.19 1.87 1.87 0 0 0 .88-.19 1.65 1.65 0 0 0 .6-.47 1.84 1.84 0 0 0 .36-.79 7.48 7.48 0 0 0 .09-1.35zm9.81-8.24h1.94v8.26a2.62 2.62 0 0 0 .75 2 2.78 2.78 0 0 0 3.73 0 2.65 2.65 0 0 0 .74-2v-8.26h1.94V125a4.26 4.26 0 0 1-1.31 3.21 4.83 4.83 0 0 1-6.46 0 4.14 4.14 0 0 1-1.33-3.21zm15.46 11.19a2.46 2.46 0 0 0 1.29-.3 1 1 0 0 0 .5-.86.76.76 0 0 0-.3-.69 1.47 1.47 0 0 0-.81-.22l-1.62-.14a3.09 3.09 0 0 1-1.87-.77 2.36 2.36 0 0 1-.76-1.82 2.45 2.45 0 0 1 1-2.11 3.91 3.91 0 0 1 2.4-.71 7.73 7.73 0 0 1 1.14.08 4.79 4.79 0 0 1 2.45 1.17l-1.13 1.33A5.87 5.87 0 0 0 79 122a3.69 3.69 0 0 0-1.34-.22 1.85 1.85 0 0 0-1.2.3 1 1 0 0 0-.36.79.63.63 0 0 0 .27.54 1.62 1.62 0 0 0 .93.33l1.51.11a2.85 2.85 0 0 1 2.06.86 2.92 2.92 0 0 1 .59 1.87 2.36 2.36 0 0 1-1.08 2 4.68 4.68 0 0 1-2.7.76 5.8 5.8 0 0 1-4-1.64l1.29-1.25a3.82 3.82 0 0 0 2.85 1.25zm7.77-2.25a2.1 2.1 0 0 0 .64 1.67 2.07 2.07 0 0 0 1.54.58 2.74 2.74 0 0 0 2-.88l1.32 1.18a4.28 4.28 0 0 1-3.28 1.48 4.82 4.82 0 0 1-1.41-.21 3.67 3.67 0 0 1-.67-.31 3.31 3.31 0 0 1-.64-.41 3.71 3.71 0 0 1-.94-1.43 5.66 5.66 0 0 1-.39-2.28 6.27 6.27 0 0 1 .34-2.25 4 4 0 0 1 .88-1.45 3.36 3.36 0 0 1 1.22-.77 3.88 3.88 0 0 1 1.32-.24 3.84 3.84 0 0 1 2.64 1 3.72 3.72 0 0 1 1.12 2.83v1.51zm3.85-1.51a2.3 2.3 0 0 0-.57-1.61 2 2 0 0 0-2.7 0 2.46 2.46 0 0 0-.58 1.61z" fill="#e50012"/></g></g></svg>