<svg xmlns="http://www.w3.org/2000/svg" viewBox="0 0 51.85 33.46"><g data-name="レイヤー 2"><path d="M19.26 30.17A11 11 0 0 1 11.6 33a11.49 11.49 0 0 1-6.39-1.87 11 11 0 0 1-3.79-4c-.23-.49-.45-.95-.64-1.4A9.06 9.06 0 0 1 .33 24 54.79 54.79 0 0 1 0 16.5a54.87 54.87 0 0 1 .33-7.57 9.26 9.26 0 0 1 1.09-3.1 11.18 11.18 0 0 1 3.79-4A11.16 11.16 0 0 1 11.6 0a11.37 11.37 0 0 1 6.46 1.83 10.85 10.85 0 0 1 3.69 4 7.5 7.5 0 0 1 1.14 3.1 63.09 63.09 0 0 1 .29 7.57c0 3.37-.08 5.72-.22 7.06a8.72 8.72 0 0 1-1 3.11l4.27 3.41-2.91 3.38zm-8.17-6.52L14 20.28l3.79 3a30.83 30.83 0 0 0 .47-6.79 40.31 40.31 0 0 0-.34-6.49 5.62 5.62 0 0 0-1.31-2.69 5.86 5.86 0 0 0-2-1.67 7.18 7.18 0 0 0-3.05-.69 6.79 6.79 0 0 0-3 .69 6.21 6.21 0 0 0-2 1.67A5.41 5.41 0 0 0 5.3 10a38.48 38.48 0 0 0-.36 6.53A37.53 37.53 0 0 0 5.3 23a5.42 5.42 0 0 0 1.27 2.74 5.75 5.75 0 0 0 2 1.62 5.75 5.75 0 0 0 3 .74 5.48 5.48 0 0 0 3.63-1.14zm22.26 4.69L46 12.49a6.39 6.39 0 0 0 1-1.78 6.55 6.55 0 0 0 .18-1.47 4.77 4.77 0 0 0-1.14-3.18 4.31 4.31 0 0 0-3.34-1.41 4.37 4.37 0 0 0-3.18 1.23A5.26 5.26 0 0 0 38 9.33h-4.65a9.91 9.91 0 0 1 2.71-6.7A8.7 8.7 0 0 1 42.36 0a9.28 9.28 0 0 1 6.79 2.67 9 9 0 0 1 2.7 6.61 8.94 8.94 0 0 1-2 5.7l-10.4 13.1h12.4v4.65h-18.5z" fill="#e50012" data-name="レイヤー 1"/></g></svg>