<svg xmlns="http://www.w3.org/2000/svg" viewBox="0 0 60.63 10.44"><g data-name="レイヤー 2"><path d="M6.05 2.84a2.19 2.19 0 0 0-.81-.62 2.18 2.18 0 0 0-1-.23A2.59 2.59 0 0 0 3.8 2a1.29 1.29 0 0 0-.44.16A1.08 1.08 0 0 0 3 2.5a.8.8 0 0 0-.1.5.77.77 0 0 0 .1.4 1.11 1.11 0 0 0 .31.3 3.59 3.59 0 0 0 .48.23l.63.21 1 .38a3.82 3.82 0 0 1 1 .53 3 3 0 0 1 .74.84 2.35 2.35 0 0 1 .34 1.24 3.19 3.19 0 0 1-.31 1.47 2.85 2.85 0 0 1-.85 1 3.57 3.57 0 0 1-1.22.6 5.06 5.06 0 0 1-1.41.2 5.78 5.78 0 0 1-2.06-.37A4.39 4.39 0 0 1 0 9l1.57-1.59a3.09 3.09 0 0 0 1 .75 2.58 2.58 0 0 0 1.18.3 2.24 2.24 0 0 0 .52-.06 1.45 1.45 0 0 0 .44-.18A1 1 0 0 0 5 7.88a1.12 1.12 0 0 0 .11-.5.76.76 0 0 0-.14-.48 1.29 1.29 0 0 0-.4-.36 3.54 3.54 0 0 0-.64-.29L3 6a8.89 8.89 0 0 1-.93-.36 3.18 3.18 0 0 1-.81-.54 2.33 2.33 0 0 1-.57-.8 2.61 2.61 0 0 1-.2-1.18 2.73 2.73 0 0 1 .34-1.41 2.83 2.83 0 0 1 .88-1A3.82 3.82 0 0 1 2.94.19 5.47 5.47 0 0 1 4.33 0 5.24 5.24 0 0 1 6 .32a4.45 4.45 0 0 1 1.53.91zM17.58 10a5.18 5.18 0 0 1-2.22.44 5.83 5.83 0 0 1-2.12-.37A5.18 5.18 0 0 1 11.55 9a5 5 0 0 1-1.12-1.66A5.5 5.5 0 0 1 10 5.21a5.37 5.37 0 0 1 .42-2.16 4.65 4.65 0 0 1 1.14-1.64 5 5 0 0 1 1.71-1A6 6 0 0 1 15.4 0a5.86 5.86 0 0 1 2.06.37 4 4 0 0 1 1.65 1.09l-1.62 1.62a2 2 0 0 0-.89-.69 3 3 0 0 0-2.27 0 2.64 2.64 0 0 0-.9.64 2.77 2.77 0 0 0-.59 1 3.38 3.38 0 0 0-.21 1.21 3.45 3.45 0 0 0 .21 1.23 2.9 2.9 0 0 0 .58 1 2.55 2.55 0 0 0 .89.62 2.78 2.78 0 0 0 1.13.23A2.74 2.74 0 0 0 16.69 8a2.43 2.43 0 0 0 .85-.73l1.67 1.57A4.68 4.68 0 0 1 17.58 10zm9.36.18l-2.16-3.94H24v3.94h-2.37V.27h3.78a6.37 6.37 0 0 1 1.39.14 3.69 3.69 0 0 1 1.2.5 2.53 2.53 0 0 1 .86.92 2.85 2.85 0 0 1 .32 1.43A2.68 2.68 0 0 1 28.66 5a3.09 3.09 0 0 1-1.51 1l2.59 4.24zm-.1-6.88a1 1 0 0 0-.15-.56 1 1 0 0 0-.38-.34 1.67 1.67 0 0 0-.52-.16 3.6 3.6 0 0 0-.56 0H24v2.27h1.14a4.3 4.3 0 0 0 .61 0 1.75 1.75 0 0 0 .56-.18 1 1 0 0 0 .42-.36 1.14 1.14 0 0 0 .11-.67zm15.8 1.88a5.56 5.56 0 0 1-.4 2.15A5 5 0 0 1 41.11 9a5.17 5.17 0 0 1-1.71 1.07 6.13 6.13 0 0 1-2.16.37 6 6 0 0 1-2.15-.37A5.17 5.17 0 0 1 33.38 9a5 5 0 0 1-1.12-1.67 5.39 5.39 0 0 1-.41-2.15A5.32 5.32 0 0 1 32.26 3a4.7 4.7 0 0 1 1.12-1.6 5.1 5.1 0 0 1 1.71-1 6.26 6.26 0 0 1 2.15-.4 6.36 6.36 0 0 1 2.16.36 5.1 5.1 0 0 1 1.71 1A4.72 4.72 0 0 1 42.24 3a5.49 5.49 0 0 1 .4 2.18zm-2.56 0A3.36 3.36 0 0 0 39.87 4a2.71 2.71 0 0 0-.58-1 2.67 2.67 0 0 0-.89-.63 2.76 2.76 0 0 0-1.16-.23 2.72 2.72 0 0 0-1.15.23 2.67 2.67 0 0 0-.89.63 2.45 2.45 0 0 0-.58 1 3.36 3.36 0 0 0-.21 1.2 3.55 3.55 0 0 0 .21 1.24 3 3 0 0 0 .58 1 2.7 2.7 0 0 0 .89.64 3 3 0 0 0 2.3 0 2.8 2.8 0 0 0 1.48-1.61 3.55 3.55 0 0 0 .21-1.29zm5.55 5V.27H48v7.82h3.84v2.09zm8.76 0V.27h2.41v7.82h3.83v2.09z" data-name="レイヤー 1"/></g></svg>