<svg xmlns="http://www.w3.org/2000/svg" viewBox="0 0 51.54 33.46"><g data-name="レイヤー 2"><path d="M19.26 30.17A11 11 0 0 1 11.6 33a11.49 11.49 0 0 1-6.39-1.87 11 11 0 0 1-3.79-4c-.23-.49-.45-.95-.64-1.4A9.06 9.06 0 0 1 .33 24 54.79 54.79 0 0 1 0 16.5a54.87 54.87 0 0 1 .33-7.57 9.26 9.26 0 0 1 1.09-3.1 11.18 11.18 0 0 1 3.79-4A11.16 11.16 0 0 1 11.6 0a11.37 11.37 0 0 1 6.46 1.83 10.85 10.85 0 0 1 3.69 4 7.5 7.5 0 0 1 1.14 3.1 63.09 63.09 0 0 1 .29 7.57c0 3.37-.08 5.72-.22 7.06a8.72 8.72 0 0 1-1 3.11l4.27 3.41-2.91 3.38zm-8.17-6.52L14 20.28l3.79 3a30.83 30.83 0 0 0 .47-6.79 40.31 40.31 0 0 0-.34-6.49 5.62 5.62 0 0 0-1.31-2.69 5.86 5.86 0 0 0-2-1.67 7.18 7.18 0 0 0-3.05-.69 6.79 6.79 0 0 0-3 .69 6.21 6.21 0 0 0-2 1.67A5.41 5.41 0 0 0 5.3 10a38.48 38.48 0 0 0-.36 6.53A37.53 37.53 0 0 0 5.3 23a5.42 5.42 0 0 0 1.27 2.74 5.75 5.75 0 0 0 2 1.62 5.75 5.75 0 0 0 3 .74 5.48 5.48 0 0 0 3.63-1.14zm28.8-9.71h1.61a5 5 0 0 0 3.69-1.32 4.34 4.34 0 0 0 1.31-3.29A4.66 4.66 0 0 0 45.15 6a4.84 4.84 0 0 0-3.39-1.32 4.28 4.28 0 0 0-2.71 1 4.86 4.86 0 0 0-1.74 3h-4.65a9.49 9.49 0 0 1 2.91-6.08 8.49 8.49 0 0 1 6-2.49 9.18 9.18 0 0 1 9.58 9.24 9.88 9.88 0 0 1-.67 3.61 7.6 7.6 0 0 1-2.78 3.09 8.13 8.13 0 0 1 3 3.21 9.15 9.15 0 0 1 .87 3.92 9.57 9.57 0 0 1-2.83 7.19 9.8 9.8 0 0 1-7 2.74 8.91 8.91 0 0 1-5.87-2.14 10.15 10.15 0 0 1-3.32-6.19h4.65a6.63 6.63 0 0 0 1.76 2.63 4.44 4.44 0 0 0 3.07 1 4.65 4.65 0 0 0 3.45-1.4 5 5 0 0 0 1.47-3.74 5.18 5.18 0 0 0-1.47-3.83 5 5 0 0 0-3.56-1.31h-2z" fill="#e50012" data-name="レイヤー 1"/></g></svg>